<svg width="399" height="337" viewBox="0 0 399 337" fill="none" xmlns="http://www.w3.org/2000/svg">
<path d="M0.000305176 334H398.222V336.752H0.000305176V334Z" fill="black"/>
<path d="M162.084 3.59384V11.6499H169.271V3.59384C169.271 1.61656 167.668 0 165.678 0C163.7 0 162.084 1.6032 162.084 3.59384Z" fill="#D35A24"/>
<path d="M163.887 4.03469C163.887 5.02333 164.689 5.82492 165.678 5.82492C166.666 5.82492 167.468 5.02333 167.468 4.03469C167.468 3.04605 166.666 2.24445 165.678 2.24445C164.689 2.24445 163.887 3.04605 163.887 4.03469Z" fill="#F6921E"/>
<path d="M162.084 7.02734H169.271V11.6499H162.084V7.02734Z" fill="black"/>
<path d="M119.665 3.59384V11.6499H126.853V3.59384C126.853 1.61656 125.249 0 123.259 0C121.268 0 119.665 1.6032 119.665 3.59384Z" fill="#D35A24"/>
<path d="M121.47 4.03469C121.47 5.02333 122.272 5.82492 123.261 5.82492C124.249 5.82492 125.051 5.02333 125.051 4.03469C125.051 3.04605 124.249 2.24445 123.261 2.24445C122.272 2.24445 121.47 3.04605 121.47 4.03469Z" fill="#F6921E"/>
<path d="M119.665 7.02734H126.853V11.6499H119.665V7.02734Z" fill="black"/>
<path d="M108.964 8.37671H179.959V110.875H108.964V8.37671Z" fill="#F6921E"/>
<path d="M111.741 11.1555H177.179V108.096H111.741V11.1555Z" fill="#D35A24"/>
<path d="M111.755 11.1555V15.9651L177.179 13.6004V11.1555H111.755Z" fill="black"/>
<path d="M165.116 18.4635H175.35V58.0091H165.116V18.4635Z" fill="#FBC222"/>
<path d="M165.116 29.9664H175.35V46.4927H165.116V29.9664Z" fill="#271977"/>
<path d="M167.414 20.6946H173.052V22.7787H167.414V20.6946Z" fill="#271977"/>
<path d="M147.121 23.941H155.925V57.9957H147.121V23.941Z" fill="#39B597"/>
<path d="M147.121 33.8542H155.925V48.0826H147.121V33.8542Z" fill="white"/>
<path d="M149.11 25.8649H153.96V27.6552H149.11V25.8649Z" fill="white"/>
<path d="M156.432 20.6946H165.129V57.9957H156.432V20.6946Z" fill="#462ABC"/>
<path d="M158.37 30.4608H163.18V48.2296H158.37V30.4608Z" fill="#FBC222"/>
<path d="M137.354 17.1409H146.052V57.9957H137.354V17.1409Z" fill="white"/>
<path d="M139.291 27.8423H144.101V47.2944H139.291V27.8423Z" fill="#EC1C24"/>
<path d="M116.203 30.4742H133.651V58.0091H116.203V30.4742Z" fill="#39B597"/>
<path d="M116.19 44.9431V50.6611L133.651 49.6191V44.9431H116.19Z" fill="black"/>
<path d="M116.19 30.4742V36.2323L133.651 34.6559V30.4742H116.19Z" fill="black"/>
<path d="M116.203 40.0801H133.651V49.1916H116.203V40.0801Z" fill="#FBC222"/>
<path d="M115.575 28.6572H134.266V33.8543H115.575V28.6572Z" fill="#39B597"/>
<path d="M111.755 59.6257V64.4353L177.179 62.0706V59.6257H111.755Z" fill="black"/>
<path d="M111.747 61.3974V57.8704L177.184 57.8704V61.3974L111.747 61.3974Z" fill="#F6921E"/>
<path d="M82.2156 3.59384V11.6499H89.4033V3.59384C89.4033 1.61656 87.8001 0 85.8095 0C83.8188 0 82.2156 1.6032 82.2156 3.59384Z" fill="#3A3A38"/>
<path d="M84.0055 4.03469C84.0055 5.02333 84.807 5.82492 85.7957 5.82492C86.7843 5.82492 87.5859 5.02333 87.5859 4.03469C87.5859 3.04605 86.7843 2.24445 85.7957 2.24445C84.807 2.24445 84.0055 3.04605 84.0055 4.03469Z" fill="#1F1D0D"/>
<path d="M82.203 7.02734H89.3906V11.6499H82.203V7.02734Z" fill="black"/>
<path d="M39.7841 3.59384V11.6499H46.9717V3.59384C46.9717 1.61656 45.3685 0 43.3778 0C41.3872 0 39.7841 1.6032 39.7841 3.59384Z" fill="#3A3A38"/>
<path d="M41.5885 4.03469C41.5885 5.02333 42.39 5.82492 43.3787 5.82492C44.3673 5.82492 45.1689 5.02333 45.1689 4.03469C45.1689 3.04605 44.3673 2.24445 43.3787 2.24445C42.39 2.24445 41.5885 3.04605 41.5885 4.03469Z" fill="#1F1D0D"/>
<path d="M39.7841 7.02734H46.9717V11.6499H39.7841V7.02734Z" fill="black"/>
<path d="M29.0968 8.37671H100.092V110.875H29.0968V8.37671Z" fill="#3A3A38"/>
<path d="M31.8752 11.1555H97.3125V108.096H31.8752V11.1555Z" fill="#1F1D0D"/>
<path d="M48.5625 35.2571H93.4922V58.3164H48.5625V35.2571Z" fill="#FBC222"/>
<path d="M48.5625 47.3879V52.1708L93.4922 51.3024V47.3879H48.5625Z" fill="black"/>
<path d="M48.5625 35.2571V40.08L93.4922 38.7708V35.2571H48.5625Z" fill="black"/>
<path d="M48.5625 43.3131H93.4922V50.9417H48.5625V43.3131Z" fill="white"/>
<path d="M46.9727 33.734H95.082V38.0894H46.9727V33.734Z" fill="#FBC222"/>
<path d="M31.8752 11.1555V15.9651L97.3125 13.6004V11.1555H31.8752Z" fill="black"/>
<path d="M31.8752 59.6257V64.4353L97.3125 62.0706V59.6257H31.8752Z" fill="black"/>
<path d="M31.8691 61.3884V57.8615L97.3064 57.8615V61.3884L31.8691 61.3884Z" fill="#3A3A38"/>
<path d="M61.3757 68.5501H71.6094V108.096H61.3757V68.5501Z" fill="#39B597"/>
<path d="M61.3757 80.0664H71.6094V96.5927H61.3757V80.0664Z" fill="black"/>
<path d="M63.6745 70.7946H69.3125V72.8787H63.6745V70.7946Z" fill="black"/>
<path d="M40.6934 73.1959L53.3311 104.819L45.1554 108.086L32.5178 76.4631L40.6934 73.1959Z" fill="#462ABC"/>
<path d="M44.3741 82.399L49.6543 95.6115L41.4787 98.8788L36.1985 85.6662L44.3741 82.399Z" fill="#FBC222"/>
<path d="M35.0317 77.5087L39.5352 75.709L40.1995 77.3714L35.6961 79.1711L35.0317 77.5087Z" fill="white"/>
<path d="M52.6757 70.7946H61.373V108.096H52.6757V70.7946Z" fill="#FBC222"/>
<path d="M54.627 80.5607H59.4365V98.3295H54.627V80.5607Z" fill="#462ABC"/>
<path d="M73.0258 72.705H95.4707V108.096H73.0258V72.705Z" fill="white"/>
<path d="M73.0258 91.3155V98.6635L95.4707 97.3141V91.3155H73.0258Z" fill="black"/>
<path d="M73.0258 72.705V80.1065L95.4707 78.0757V72.705H73.0258Z" fill="black"/>
<path d="M73.0258 85.063H95.4707V96.7798H73.0258V85.063Z" fill="#EC1C24"/>
<path d="M72.2242 70.3671H96.2588V77.0471H72.2242V70.3671Z" fill="white"/>
<path d="M117.781 169.498H221.481L205.65 97.4478H101.95L117.781 169.498Z" fill="black"/>
<path d="M219.411 166.412L204.942 100.534H107.548L122.03 166.412H219.411Z" fill="#29281E"/>
<path d="M135.912 102.565L142.124 130.834H116.406L110.194 102.565H135.912Z" fill="#F7FF62"/>
<path d="M156.272 108.537C156.686 107.842 157.421 107.374 158.183 107.334C158.984 107.281 159.238 107.361 159.786 106.586C160.12 106.118 160.908 105.691 161.442 105.784C161.629 105.811 161.803 105.891 161.977 105.918C162.404 105.958 162.792 105.664 163.193 105.477C163.874 105.17 164.702 105.263 165.33 105.691C165.584 105.865 165.798 106.092 166.052 106.265C166.613 106.666 167.281 106.84 167.909 107.107C168.537 107.374 169.164 107.829 169.378 108.523C169.512 108.937 169.485 109.378 169.579 109.806C169.806 110.728 170.634 111.396 170.754 112.344C170.808 112.812 170.687 113.293 170.674 113.774C170.661 114.829 171.209 115.992 170.701 116.873C170.34 117.501 169.552 117.728 169.245 118.383C169.124 118.65 169.084 118.957 168.964 119.211C168.603 120.013 167.615 120.12 166.813 120C166.265 119.919 165.731 119.786 165.21 119.599C164.916 119.492 164.609 119.372 164.301 119.452C163.874 119.572 163.633 120.093 163.233 120.293C162.712 120.574 162.07 120.267 161.509 120.44C160.841 120.654 160.387 121.509 159.692 121.496C159.265 121.496 158.917 121.162 158.597 120.855C158.062 120.334 157.528 119.812 157.007 119.278C156.766 119.038 156.526 118.81 156.366 118.503C156.192 118.183 156.125 117.795 156.032 117.434C155.724 116.299 155.083 115.15 155.364 114.014C155.484 113.507 155.791 113.079 155.978 112.598C156.179 112.064 156.245 111.449 156.138 110.875C156.072 110.527 155.951 110.18 155.938 109.819C155.898 109.392 156.045 108.924 156.272 108.537Z" fill="#752B31"/>
<path d="M178.651 139.679L180.2 143.313C180.361 143.687 180.521 144.061 180.695 144.422C184.048 151.556 189.526 155.617 192.919 152.024C195.872 148.911 200 138.637 201.349 135.15C201.51 134.963 201.67 134.789 201.817 134.602C203.634 132.398 205.451 130.207 207.268 128.002C207.562 127.642 208.51 126.065 208.043 125.624C207.281 124.889 204.435 128.31 203.981 128.831C204.916 127.321 205.838 125.825 206.773 124.315C207.014 123.927 207.254 123.527 207.321 123.072C207.375 122.618 207.188 122.097 206.773 121.91C206.105 121.616 205.424 122.284 205.01 122.885C203.968 124.355 202.912 125.811 201.87 127.281C202.592 125.611 203.353 123.941 203.848 122.191C204.008 121.643 204.582 119.986 204.182 119.492C203.313 118.437 202.151 120.574 201.897 121.189C201.082 123.113 200.28 125.05 199.465 126.974C199.866 124.849 200.08 122.685 200.12 120.521C200.133 119.919 200.027 119.171 199.452 118.971C198.664 118.704 198.129 119.759 197.969 120.574C197.461 123.286 197.074 126.025 196.834 128.777C196.419 127.561 195.765 126.426 194.923 125.464C194.736 125.25 194.522 125.036 194.242 125.01C193.534 124.929 193.333 125.985 193.507 126.68C193.934 128.523 194.803 130.233 195.27 132.077C195.284 132.117 195.284 132.157 195.297 132.197L189.606 144.088L188.297 141.576L187.041 139.171L178.651 139.679Z" fill="#F68080"/>
<path d="M178.65 139.679L180.2 143.313C180.36 143.687 180.521 144.061 180.694 144.422C184.529 143.7 186.934 142.391 188.27 141.549L187.014 139.144L178.65 139.679Z" fill="black"/>
<path d="M144.062 166.412H152.091C152.091 166.412 150.956 149.979 151.65 145.557C151.797 144.649 151.958 143.847 152.131 143.139C152.786 140.4 153.534 139.144 153.534 139.144L144.583 140.24C144.583 140.24 144.302 142.03 143.942 144.649C143.234 149.672 144.129 161.977 144.062 166.412Z" fill="#F68080"/>
<path d="M143.942 144.649C147.803 145.143 150.582 144.021 152.131 143.126C152.786 140.387 153.534 139.131 153.534 139.131L144.583 140.227C144.583 140.24 144.302 142.03 143.942 144.649Z" fill="black"/>
<path d="M142.124 142.03C142.124 142.03 145.317 142.912 148.443 142.885C149.953 142.872 151.436 142.658 152.531 142.03C155.898 140.093 158.637 125.063 158.637 125.063C158.637 125.063 157.982 125.21 156.94 125.597H156.927C153.186 126.973 144.368 131.275 142.124 142.03Z" fill="white"/>
<path opacity="0.3" d="M148.443 142.885C149.953 142.872 151.436 142.658 152.531 142.03C155.898 140.093 158.637 125.063 158.637 125.063C158.637 125.063 157.982 125.21 156.94 125.597H156.927C155.083 126.586 152.625 128.617 150.808 132.745C149.285 136.232 148.67 139.933 148.443 142.885Z" fill="#368CAD"/>
<path d="M189.579 140.253C189.579 140.253 186.546 141.589 183.447 142.003C181.951 142.204 180.454 142.204 179.279 141.736C175.671 140.293 170.808 125.824 170.808 125.824C170.808 125.824 171.476 125.878 172.558 126.105H172.572C176.486 126.933 185.838 129.926 189.579 140.253Z" fill="white"/>
<path opacity="0.3" d="M183.461 142.003C181.965 142.204 180.468 142.204 179.293 141.736C175.685 140.293 170.822 125.824 170.822 125.824C170.822 125.824 171.49 125.878 172.573 126.105H172.586C174.55 126.826 177.275 128.483 179.667 132.304C181.671 135.537 182.82 139.104 183.461 142.003Z" fill="#368CAD"/>
<path d="M166.88 124.635C166.88 124.635 174.749 125.611 178.73 133.867C182.711 142.124 186.278 166.399 186.278 166.399H153.72C153.72 166.399 149.498 138.904 151.956 132.491C154.401 126.065 160.133 124.448 160.133 124.448L166.88 124.635Z" fill="white"/>
<path d="M168.537 117.875C168.978 117.915 169.419 117.688 169.793 117.354C170.621 116.619 171.129 115.297 170.581 114.802C170.234 114.495 169.847 114.535 169.526 114.682C169.098 114.883 168.764 115.27 168.764 115.27L168.537 117.875Z" fill="#F68080"/>
<path d="M168.536 117.875C168.977 117.915 169.418 117.688 169.792 117.354C169.819 116.392 169.645 115.31 169.525 114.696C169.097 114.896 168.763 115.283 168.763 115.283L168.536 117.875Z" fill="black"/>
<path d="M157.784 118.249C157.357 118.316 156.889 118.129 156.488 117.809C155.62 117.127 155.005 115.858 155.526 115.324C155.847 114.99 156.234 115.003 156.568 115.137C157.009 115.297 157.37 115.671 157.37 115.671L157.784 118.249Z" fill="#F68080"/>
<path d="M157.784 118.249C157.357 118.316 156.889 118.129 156.488 117.808C156.395 116.86 156.488 115.764 156.568 115.136C157.009 115.297 157.37 115.671 157.37 115.671L157.784 118.249Z" fill="black"/>
<path d="M160.267 126.492C164.034 129.271 168.216 126.212 168.216 126.212L167.428 122.378L167.027 120.427L160.734 120.641L160.427 124.529L160.267 126.492Z" fill="#F68080"/>
<path d="M160.428 124.555C163.581 125.143 166.053 123.593 167.429 122.391L167.028 120.44L160.735 120.654L160.428 124.555Z" fill="black"/>
<path d="M157.007 116.446C157.421 120.307 160.481 123.139 163.834 122.778C167.188 122.418 169.566 118.984 169.151 115.123C168.737 111.262 165.678 108.43 162.324 108.79C158.971 109.151 156.593 112.585 157.007 116.446Z" fill="#F68080"/>
<path d="M166.96 115.644C166.599 115.136 166.425 114.402 165.838 114.188C165.223 113.961 164.555 114.442 163.927 114.322C163.179 114.175 162.805 113.279 162.097 112.972C161.683 112.798 161.295 112.919 160.881 112.865C160.574 112.825 160.28 112.531 159.986 112.785C159.812 112.945 159.745 113.173 159.665 113.4C159.585 113.613 159.478 113.854 159.264 113.947C159.144 114.001 159.011 114.014 158.877 114.041C158.423 114.175 158.196 114.682 158.102 115.136C158.049 115.377 158.022 115.631 157.915 115.858C157.808 116.085 157.608 116.285 157.354 116.299C156.913 116.312 156.673 115.804 156.592 115.364C156.165 113.039 157.22 110.287 159.264 109.018C161.175 107.815 163.62 107.508 165.771 108.203C166.84 108.55 167.908 109.218 168.256 110.3C168.376 110.661 168.389 111.035 168.536 111.396C168.83 112.144 169.605 112.638 169.819 113.4C169.899 113.667 169.899 113.961 169.899 114.241C169.899 114.949 170.246 115.751 169.498 116.232C168.683 116.726 167.481 116.366 166.96 115.644Z" fill="#752B31"/>
<path d="M159.466 142.885H173.36L172.532 136.726H158.638L159.466 142.885Z" fill="#EC1C24"/>
<path d="M127.495 112.705C127.963 112.892 128.203 113.132 128.725 112.879C129.78 112.344 130.582 111.382 130.542 110.126C130.528 109.726 130.421 109.338 130.274 108.964C129.753 107.575 128.658 106.265 127.188 106.052C126.854 105.998 126.52 106.012 126.186 106.025C125.825 106.038 125.451 106.038 125.091 106.118C123.634 106.426 122.619 107.788 122.165 109.205C122.018 109.659 121.924 110.126 121.951 110.594C121.991 111.396 122.405 112.157 123.033 112.638C123.674 113.119 124.529 113.293 125.304 113.092C126.039 112.905 126.787 112.424 127.495 112.705Z" fill="black"/>
<path d="M136.073 130.834L134.523 124.943L133.975 122.872L137.863 122.15C137.863 122.15 138.05 122.618 138.344 123.406C138.905 124.956 139.88 127.762 140.695 130.834H136.073Z" fill="#F68080"/>
<path d="M133.975 122.872L134.523 124.943C135.672 124.689 137.275 123.941 138.344 123.406C138.05 122.605 137.863 122.15 137.863 122.15L133.975 122.872Z" fill="black"/>
<path d="M120.842 125.357C120.682 126.372 120.722 128.683 120.802 130.834H117.061C116.995 128.617 116.941 126.252 117.128 124.929C117.302 123.673 117.435 122.805 117.435 122.805L121.737 122.271C121.737 122.271 121.377 122.872 121.056 124.181C120.989 124.542 120.909 124.929 120.842 125.357Z" fill="#F68080"/>
<path d="M117.142 124.929C118.999 125.17 120.335 124.635 121.083 124.195C121.404 122.885 121.765 122.284 121.765 122.284L117.463 122.818C117.449 122.805 117.316 123.673 117.142 124.929Z" fill="black"/>
<path d="M116.274 123.673C116.274 123.673 117.81 124.101 119.306 124.088C120.028 124.088 120.736 123.981 121.27 123.673C122.887 122.738 124.196 115.524 124.196 115.524C124.196 115.524 123.889 115.591 123.381 115.778C121.578 116.432 117.343 118.503 116.274 123.673Z" fill="#39B597"/>
<path opacity="0.5" d="M119.306 124.088C120.028 124.088 120.736 123.981 121.27 123.673C122.887 122.738 124.196 115.524 124.196 115.524C124.196 115.524 123.889 115.591 123.381 115.778C122.5 116.259 121.311 117.234 120.442 119.211C119.707 120.881 119.413 122.658 119.306 124.088Z" fill="#31A186"/>
<path d="M139.065 122.818C139.065 122.818 137.609 123.46 136.126 123.66C135.405 123.754 134.683 123.754 134.122 123.527C132.385 122.832 130.061 115.885 130.061 115.885C130.061 115.885 130.381 115.911 130.902 116.018C132.773 116.419 137.262 117.848 139.065 122.818Z" fill="#39B597"/>
<path opacity="0.5" d="M136.113 123.66C135.392 123.754 134.67 123.754 134.109 123.527C132.372 122.832 130.048 115.885 130.048 115.885C130.048 115.885 130.368 115.911 130.889 116.018C131.838 116.366 133.147 117.154 134.283 118.997C135.258 120.547 135.806 122.271 136.113 123.66Z" fill="#31A186"/>
<path d="M121.23 130.834C120.749 126.706 120.255 120.988 120.989 119.091C122.165 116.005 124.917 115.23 124.917 115.23L128.164 115.323C128.164 115.323 131.945 115.791 133.855 119.759C134.977 122.097 136.046 127.12 136.728 130.848H121.23V130.834Z" fill="#39B597"/>
<path d="M128.952 112.064C129.166 112.077 129.379 111.984 129.553 111.81C129.954 111.449 130.194 110.821 129.927 110.581C129.767 110.434 129.58 110.447 129.42 110.527C129.206 110.621 129.059 110.808 129.059 110.808L128.952 112.064Z" fill="#F68080"/>
<path d="M128.951 112.064C129.165 112.077 129.379 111.983 129.552 111.81C129.566 111.356 129.485 110.835 129.432 110.527C129.218 110.621 129.071 110.808 129.071 110.808L128.951 112.064Z" fill="black"/>
<path d="M123.781 112.251C123.567 112.291 123.354 112.197 123.153 112.037C122.739 111.716 122.445 111.102 122.686 110.848C122.846 110.688 123.02 110.701 123.18 110.754C123.394 110.834 123.567 111.008 123.567 111.008L123.781 112.251Z" fill="#F68080"/>
<path d="M123.781 112.251C123.567 112.291 123.354 112.197 123.153 112.037C123.113 111.583 123.153 111.048 123.193 110.754C123.407 110.835 123.581 111.008 123.581 111.008L123.781 112.251Z" fill="black"/>
<path d="M128.511 115.337C128.632 115.27 129.393 115.644 129.553 116.472C129.727 117.301 127.349 121.442 127.349 121.442C127.349 121.442 124.517 117.889 124.437 116.446C124.356 115.003 126.4 115.27 126.4 115.27L128.511 115.337Z" fill="#F68080"/>
<path d="M124.983 116.205C126.8 117.541 128.804 116.072 128.804 116.072L128.43 114.228L128.243 113.293L125.223 113.4L125.076 115.27L124.983 116.205Z" fill="#F68080"/>
<path d="M125.066 115.27C126.576 115.551 127.765 114.803 128.433 114.228L128.246 113.293L125.226 113.4L125.066 115.27Z" fill="black"/>
<path d="M123.407 111.382C123.608 113.239 125.077 114.602 126.694 114.428C128.31 114.255 129.446 112.611 129.246 110.754C129.045 108.897 127.576 107.535 125.959 107.708C124.356 107.882 123.207 109.525 123.407 111.382Z" fill="#F68080"/>
<path d="M125.531 108.897C125.077 109.445 124.382 109.819 123.688 109.966C123.1 110.086 122.646 109.632 122.9 109.031C123.14 108.483 123.621 108.082 124.089 107.708C124.529 107.348 124.997 106.987 125.531 106.827C126.64 106.493 127.843 107.094 128.644 107.922C129.085 108.376 129.459 108.924 129.646 109.539C129.767 109.913 129.887 110.46 129.726 110.848C129.473 111.449 128.965 111.088 128.511 110.955C127.322 110.607 126.253 109.926 125.531 108.897Z" fill="black"/>
<path d="M118.29 171.075H255.083L253.694 166.118H116.901L118.29 171.075Z" fill="black"/>
<path d="M157.127 98.8239C157.127 99.2514 157.474 99.5988 157.902 99.5988C158.329 99.5988 158.677 99.2514 158.677 98.8239C158.677 98.3964 158.329 98.049 157.902 98.049C157.474 98.049 157.127 98.3964 157.127 98.8239Z" fill="#333333"/>
<path d="M138.423 167.735H146.038V169.445H138.423V167.735Z" fill="#333333"/>
<path d="M133.48 167.735H136.366V169.445H133.48V167.735Z" fill="#333333"/>
<path d="M231.048 171.075H262.15C260.026 168.242 252.424 159.318 241.202 159.492C240.641 159.492 240.053 159.532 239.478 159.585C228.296 160.681 229.819 167.922 231.048 171.075Z" fill="black"/>
<path d="M231.048 171.075H247.24C245.757 164.154 242.925 160.894 241.201 159.492C240.64 159.492 240.053 159.532 239.478 159.585C228.296 160.681 229.819 167.922 231.048 171.075Z" fill="#333333"/>
<path d="M322.498 234.642L324.128 241.883L326.359 251.782L344.93 334H355.725L337.154 251.782L334.91 241.883L333.28 234.642H322.498Z" fill="#999999"/>
<path d="M322.496 234.641L324.126 241.883L326.357 251.782H337.152L334.908 241.883L333.278 234.641H322.496Z" fill="black"/>
<path d="M257.18 234.641L255.536 241.883L253.305 251.782L234.735 334H223.953L242.51 251.782L244.755 241.883L246.385 234.641H257.18Z" fill="#999999"/>
<path d="M257.18 234.641L255.536 241.883L253.305 251.782H242.51L244.755 241.883L246.385 234.641H257.18Z" fill="black"/>
<path d="M228.35 227.16V230.326C228.35 230.74 228.363 231.141 228.39 231.542C228.644 234.949 229.993 238.195 232.238 240.787C233.761 242.551 235.631 243.953 237.702 244.902C239.773 245.851 242.044 246.358 244.382 246.358H336.218C341.202 246.358 345.637 243.205 347.267 238.503L386.372 125.998C387.922 121.536 385.423 116.686 380.894 115.363C380.36 115.203 379.825 115.11 379.304 115.056C379.064 115.029 378.81 115.016 378.57 115.016C375.123 115.016 371.916 117.194 370.754 120.614L335.804 223.419C335.043 225.65 332.959 227.147 330.594 227.147H228.35V227.16Z" fill="#666666"/>
<path opacity="0.5" d="M228.349 227.16V230.326C228.349 230.74 228.362 231.141 228.389 231.542C229.204 232.116 230.059 232.611 230.954 233.012C233.025 233.96 235.296 234.468 237.634 234.468H329.457C334.441 234.468 338.876 231.315 340.506 226.612L379.29 115.056C379.05 115.029 378.796 115.016 378.555 115.016C375.108 115.016 371.902 117.194 370.74 120.614L335.79 223.419C335.028 225.65 332.944 227.147 330.58 227.147H228.349V227.16Z" fill="#333333"/>
<path d="M285.477 101.897C285.891 101.763 285.771 98.1559 285.771 98.1559C285.771 98.1559 278.77 95.7511 268.577 102.805L271.649 105.664L285.477 101.897Z" fill="black"/>
<path d="M263.672 91.5293C266.732 97.0069 272.009 99.0644 272.009 99.0644L272.637 100.921L275.109 108.203L285.489 105.651L282.924 98.7972L281.334 94.5487C281.334 94.5487 282.35 89.9796 282.136 86.2788C281.882 81.9369 282.016 81.4025 282.697 78.7438C283.378 76.0852 278.796 76.005 277.139 82.6049C277.139 82.6049 275.042 75.8714 274.895 72.478C274.761 69.0845 272.931 68.3631 272.33 68.4566C271.728 68.5635 270.286 68.8841 270.072 71.8634C270.072 71.8634 269.671 67.7352 267.707 67.7352C265.743 67.7352 265.382 70.4072 265.543 72.2642C265.543 72.2642 264.434 70.6209 263.378 70.9817C262.31 71.3424 261.548 72.1974 261.909 74.8961C261.909 74.8961 260.666 74.4152 260.119 75.8848C259.624 77.2475 260.613 86.0517 263.672 91.5293Z" fill="#F68080"/>
<path d="M270.073 71.8901C270.073 71.8901 270.273 76.4993 272.01 82.1906" stroke="#231F20" stroke-width="0.3491" stroke-miterlimit="10" stroke-linecap="round" stroke-linejoin="round"/>
<path d="M277.139 82.6316L276.751 84.9696C276.751 84.9696 270.539 83.5534 267.092 87.9889" stroke="#231F20" stroke-width="0.3491" stroke-miterlimit="10" stroke-linecap="round" stroke-linejoin="round"/>
<path d="M265.556 72.291C265.556 72.291 265.917 77.9022 267.827 83.313" stroke="#231F20" stroke-width="0.3491" stroke-miterlimit="10" stroke-linecap="round" stroke-linejoin="round"/>
<path d="M261.923 74.9094C261.923 74.9094 262.217 80.9615 264.087 84.2881" stroke="#231F20" stroke-width="0.3491" stroke-miterlimit="10" stroke-linecap="round" stroke-linejoin="round"/>
<path d="M272.637 100.921L275.109 108.203L285.489 105.651L282.924 98.7971C281.294 99.4117 277.567 100.587 272.637 100.921Z" fill="black"/>
<path d="M268.574 102.792C268.574 102.792 272.849 116.9 276.683 128.122C278.42 133.253 280.077 137.768 281.172 140.08C282.215 142.257 283.711 144.007 285.488 145.29C289.589 148.256 295.2 148.804 300.304 146.786C300.478 146.719 300.651 146.639 300.838 146.572C308.28 143.339 328.467 107.254 328.467 107.254L318.407 96.1786C318.407 96.1786 317.872 96.8466 316.991 97.9955C316.991 97.9955 316.991 97.9955 316.977 98.0089C312.087 104.261 296.349 124.408 296.523 124.007C296.737 123.526 285.768 98.1559 285.768 98.1559C285.768 98.1559 278.233 103.687 268.574 102.792Z" fill="#FFD42D"/>
<path opacity="0.3" d="M276.684 128.122C278.421 133.253 280.078 137.768 281.173 140.08C282.215 142.257 283.712 144.007 285.488 145.29C289.59 148.256 295.201 148.804 300.305 146.786V137.528L276.684 128.122Z" fill="#D35A24"/>
<path opacity="0.3" d="M285.501 145.29C289.736 148.363 295.601 148.844 300.838 146.572C308.28 143.339 328.467 107.254 328.467 107.254L318.407 96.1786C318.407 96.1786 317.872 96.8466 316.991 97.9955C316.991 97.9955 316.991 97.9955 316.977 98.0089C309.055 109.512 293.878 132.544 285.501 145.29Z" fill="#D35A24"/>
<path d="M266.062 133.159L262.482 126.506C262.482 126.506 255.201 130.367 252.703 150.327L259.81 149.298L266.062 133.159Z" fill="black"/>
<path d="M217.299 132.077C227.68 139.465 237.86 137.795 250.232 141.549C250.352 141.589 250.779 141.816 251.421 142.164C254.721 144.007 263.552 149.271 263.552 149.271L268.562 133.693L259.45 129.538L254.56 127.307C254.56 127.307 252.636 122.698 250.566 120.16C248.495 117.621 245.475 113.293 245.208 109.445C244.941 105.597 241.147 107.361 240.292 110.634C239.437 113.894 239.771 118.236 239.771 118.236C239.771 118.236 235.081 119.532 229.043 115.31C223.017 111.102 223.685 110.113 220.973 109.605C218.261 109.111 218.154 111.97 218.956 113.079C218.956 113.079 215.562 110.794 214.12 111.008C212.182 111.289 211.167 114.228 214.053 117.034C213.919 116.94 212.303 115.778 210.793 117.154C209.216 118.597 210.419 120.32 211.969 121.496C211.969 121.496 210.339 120.828 209.497 121.416C208.682 121.977 206.905 124.689 217.299 132.077Z" fill="#F68080"/>
<path d="M251.433 142.164C254.733 144.007 263.564 149.271 263.564 149.271L268.574 133.693L259.463 129.538C257.539 133.226 254.8 137.835 251.433 142.164Z" fill="black"/>
<path d="M231.62 122.177C231.62 122.177 223.925 121.189 218.982 113.066" stroke="#231F20" stroke-width="0.3491" stroke-miterlimit="10" stroke-linecap="round" stroke-linejoin="round"/>
<path d="M228.789 126.973C228.789 126.973 224.086 126.573 214.08 117.034" stroke="#231F20" stroke-width="0.3491" stroke-miterlimit="10" stroke-linecap="round" stroke-linejoin="round"/>
<path d="M225.783 130.968C225.783 130.968 217.968 128.483 211.996 121.483" stroke="#231F20" stroke-width="0.3491" stroke-miterlimit="10" stroke-linecap="round" stroke-linejoin="round"/>
<path d="M175.964 310.967C181.014 316.619 203.151 320.974 203.151 320.974L202.63 315.51C202.35 313.679 202.216 310.513 202.163 307.601C202.083 304.1 202.123 300.961 202.123 300.961L180.292 298.409C179.665 301.188 178.89 303.659 178.168 305.663C177.006 308.937 175.964 310.967 175.964 310.967Z" fill="#F6921E"/>
<path d="M178.181 305.663C187.44 307.347 196.698 307.627 202.176 307.601C202.096 304.1 202.136 300.961 202.136 300.961L180.305 298.409C179.664 301.174 178.889 303.659 178.181 305.663Z" fill="black"/>
<path d="M173.266 298.649C188.376 307.534 207.908 306.652 207.908 306.652L227.855 230.994C227.855 230.994 289.538 230.994 306.652 230.994C318.663 230.994 326.772 220.106 330.54 213.626C332.143 210.874 332.958 208.91 332.958 208.91C312.116 204.261 267.04 187.454 267.04 187.454C267.04 187.454 253.453 188.683 238.583 191.262C224.087 193.773 208.363 197.541 202.778 202.671C193.306 211.382 173.266 298.649 173.266 298.649Z" fill="#1F1D0D"/>
<path d="M238.57 191.262C274.602 210.901 314.975 213.439 330.54 213.626C332.143 210.874 332.958 208.91 332.958 208.91C312.116 204.261 267.04 187.454 267.04 187.454C267.04 187.454 253.453 188.697 238.57 191.262Z" fill="black"/>
<path d="M175.51 306.652C175.162 306.331 167.12 315.429 156.819 318.248C146.505 321.067 143.125 321.335 142.951 326.759C142.951 326.759 205.636 327.306 205.636 326.759C205.636 326.211 206.01 320.493 203.432 313.906C203.419 313.906 181.535 312.317 175.51 306.652Z" fill="black"/>
<path d="M143.606 334H205.369C206.358 334 207.159 333.198 207.159 332.21V327.159C207.159 326.171 206.358 325.369 205.369 325.369H143.606C142.617 325.369 141.815 326.171 141.815 327.159V332.21C141.815 333.198 142.617 334 143.606 334Z" fill="#FFD42D"/>
<path d="M216.646 225.223C216.98 224.622 220.32 228.883 227.868 230.994C227.868 230.994 219.425 234.842 208.256 230.887" stroke="#231F20" stroke-width="0.3491" stroke-miterlimit="10" stroke-linecap="round" stroke-linejoin="round"/>
<path d="M318.074 81.349L319.744 90.033L321.44 98.8106L336.537 88.991L333.558 81.1486L332.142 77.3945L318.074 81.349Z" fill="#F68080"/>
<path d="M318.074 81.349L319.744 90.033C326.892 89.6055 331.808 83.6202 333.559 81.1486L332.129 77.3945L318.074 81.349Z" fill="black"/>
<path d="M305.435 70.6877C307.653 80.8012 316.083 87.5347 324.286 85.7444C332.489 83.9542 337.339 74.2949 335.121 64.1948C332.903 54.0813 324.473 47.3478 316.27 49.1381C308.067 50.9283 303.217 60.5742 305.435 70.6877Z" fill="#F68080"/>
<path d="M326.263 66.947C326.263 66.947 316.791 67.5616 312.596 61.3224C312.596 61.3224 304.527 62.8455 302.015 59.6524C299.503 56.4594 309.47 36.5664 330.752 44.1816C330.779 43.2197 331.033 42.4982 331.567 41.6966C331.794 41.3493 332.168 40.9752 332.583 41.0821C332.983 41.1756 333.144 41.6565 333.184 42.0573C333.264 42.8589 333.077 43.6873 332.676 44.382C333.384 43.9411 334.106 43.4868 334.934 43.3933C335.762 43.2998 336.697 43.6605 336.991 44.4354C337.285 45.2103 336.844 46.0653 336.27 46.6665C335.682 47.2811 334.894 47.7487 334.039 47.7621C334.132 47.8422 334.226 47.9224 334.333 48.0025C334.333 48.0025 342.295 54.5089 340.465 65.2236C338.635 75.9249 333.611 78.1026 333.611 78.1026L328.267 74.0144C330.245 73.1594 332.275 72.7586 331.915 68.0559C331.474 62.3245 327.279 62.9924 326.263 66.947Z" fill="black"/>
<path d="M257.019 186.986C257.9 186.746 297.566 213.105 336.43 211.088C336.43 211.088 348.989 186.666 355.642 167.668C359.196 157.528 362.937 137.795 360.826 120.026C360.118 114.001 358.728 108.203 356.43 103.086C352.837 95.043 346.998 88.6569 338.007 85.6643C337.766 85.7578 324.139 91.3022 316.484 100.601C315.642 101.63 314.867 102.712 314.186 103.821C310.913 109.258 303.057 122.337 295.001 135.39C287.119 148.162 279.036 160.894 274.868 166.425C274.413 167.013 274.026 167.521 273.665 167.949C266.678 176.285 256.15 187.24 257.019 186.986Z" fill="#FFD42D"/>
<path opacity="0.3" d="M274.88 166.452C283.137 170.701 306.931 182.564 314.052 182.057C322.696 181.442 341.44 165.37 353.384 140.868C357.418 132.598 359.65 125.637 360.825 120.04C360.117 114.014 358.728 108.216 356.43 103.099L350.498 102.765L349.095 94.4151C349.095 94.4151 338.755 91.9702 328.454 107.254C318.153 122.538 309.189 141.082 309.189 141.082L295.001 135.417C287.131 148.189 279.049 160.921 274.88 166.452Z" fill="#D35A24"/>
<path opacity="0.3" d="M315.28 113.066L338.006 85.691C337.765 85.7845 324.138 91.3289 316.483 100.627L315.28 113.066Z" fill="#D35A24"/>
<path d="M338.02 85.6777L335.174 83.166L317.084 94.5087L317.432 107.468L338.02 85.6777Z" fill="#FFD42D"/>
<path d="M311.366 144.462C311.366 144.462 332.542 94.3617 347.626 94.3216C362.709 94.2816 373.156 121.857 325.902 170.674C325.902 170.674 318.18 180.654 309.015 177.033C299.85 173.413 252.716 150.327 252.716 150.327C252.716 150.327 261.894 137.368 262.496 126.506L311.366 144.462Z" fill="#FFD42D"/>
<path d="M319.423 153.48C319.423 153.48 317.112 147.855 311.354 144.462C311.354 144.462 320.532 146.8 324.5 154.134" stroke="#231F20" stroke-width="0.3491" stroke-miterlimit="10" stroke-linecap="round" stroke-linejoin="round"/>
<path d="M77.6483 122.751L79.3154 122.849L79.2011 124.796L77.534 124.698L77.6483 122.751Z" fill="black"/>
<path d="M76.6857 161.883L76.5921 163.473L77.5407 166.653L79.0503 166.746L80.3597 163.7L80.4531 162.097L76.6857 161.883Z" fill="#999999"/>
<path opacity="0.5" d="M76.6862 161.883L76.5926 163.473L77.5411 166.653L77.7282 166.666L78.0088 161.95L76.6862 161.883Z" fill="#666666"/>
<path opacity="0.5" d="M76.6767 161.894L80.4512 162.115L80.3816 163.302L76.6071 163.081L76.6767 161.894Z" fill="#666666"/>
<path d="M78.8281 125.024L82.6025 125.246L80.4081 162.63L76.6336 162.408L78.8281 125.024Z" fill="#666666"/>
<path opacity="0.5" d="M78.8408 125.017L80.1611 125.094L77.9667 162.478L76.6463 162.401L78.8408 125.017Z" fill="#666666"/>
<path d="M78.8349 125.013L82.6094 125.235L82.5373 126.462L78.7629 126.24L78.8349 125.013Z" fill="black"/>
<path d="M79.2909 117.501L78.9837 122.778L82.7646 123.006L83.0718 117.728C83.1119 117.127 82.6443 116.619 82.0564 116.579L80.4532 116.486C79.8387 116.446 79.3176 116.9 79.2909 117.501Z" fill="#666666"/>
<path opacity="0.5" d="M79.2912 117.501L78.9839 122.778L80.3065 122.859L80.6807 116.499L80.4402 116.486C79.839 116.446 79.3179 116.9 79.2912 117.501Z" fill="#666666"/>
<path d="M78.877 125.384L82.551 125.597C82.7648 125.611 82.9385 125.45 82.9519 125.237L83.0988 122.738C83.1122 122.525 82.9518 122.351 82.7381 122.338L79.0641 122.124C78.8503 122.11 78.6767 122.271 78.6633 122.485L78.5164 124.983C78.503 125.197 78.6633 125.37 78.877 125.384Z" fill="#999999"/>
<path d="M76.472 135.617L76.8327 135.644C77.0465 135.658 77.2201 135.497 77.2335 135.283L77.9816 122.444C77.995 122.231 77.8347 122.057 77.6209 122.044L77.2602 122.017C77.0465 122.004 76.8728 122.164 76.8595 122.378L76.1112 135.217C76.0979 135.417 76.2582 135.604 76.472 135.617Z" fill="#999999"/>
<path d="M73.08 123.193L73.8281 123.126L73.5743 120.521C73.5476 120.32 73.3739 120.16 73.1601 120.187C72.9597 120.213 72.7994 120.387 72.8261 120.601L73.08 123.193Z" fill="black"/>
<path d="M74.1626 160.114L75.665 159.966L75.8375 161.721L74.3351 161.869L74.1626 160.114Z" fill="black"/>
<path d="M72.0629 126.479L71.916 125.023L72.6642 122.124L74.0268 121.99L75.3228 124.689L75.4697 126.145L72.0629 126.479Z" fill="#FBC222"/>
<path opacity="0.3" d="M72.0629 126.479L71.916 125.023L72.6641 122.124L72.8378 122.097L73.252 126.359L72.0629 126.479Z" fill="#D35A24"/>
<path d="M75.406 125.062L75.5117 126.139L72.108 126.473L72.0023 125.396L75.406 125.062Z" fill="black"/>
<path d="M75.4439 125.668L78.7627 159.44L75.359 159.774L72.0402 126.003L75.4439 125.668Z" fill="#FBC222"/>
<path opacity="0.3" d="M73.233 125.885L76.5518 159.656L75.3551 159.774L72.0364 126.002L73.233 125.885Z" fill="#D35A24"/>
<path d="M78.6377 158.348L78.7461 159.452L75.3424 159.786L75.2339 158.683L78.6377 158.348Z" fill="black"/>
<path d="M76.0045 166.559L75.5368 161.79L78.9437 161.456L79.4112 166.225C79.4647 166.759 79.0639 167.24 78.5295 167.294L77.0732 167.441C76.5388 167.494 76.0579 167.093 76.0045 166.559Z" fill="#FBC222"/>
<path opacity="0.3" d="M76.0036 166.559L75.536 161.79L76.725 161.669L77.2861 167.414L77.0724 167.441C76.538 167.494 76.0571 167.094 76.0036 166.559Z" fill="#D35A24"/>
<path d="M72.8113 150.26L73.132 150.233C73.319 150.22 73.4927 150.353 73.5061 150.54L74.6417 162.137C74.655 162.324 74.5214 162.498 74.3344 162.511L74.0138 162.538C73.8267 162.551 73.653 162.418 73.6397 162.23L72.5041 150.634C72.4774 150.447 72.6243 150.273 72.8113 150.26Z" fill="#39B597"/>
<path d="M75.3496 159.438L78.6762 159.118C78.8632 159.104 79.0369 159.238 79.0502 159.425L79.2774 161.683C79.2908 161.87 79.1571 162.043 78.9701 162.057L75.6434 162.377C75.4564 162.391 75.2828 162.257 75.2694 162.07L75.0422 159.812C75.0155 159.625 75.1625 159.452 75.3496 159.438Z" fill="#39B597"/>
<path d="M89.8333 129.739L90.0471 131.329L91.8506 131.583L92.4785 130.1L92.0777 127.548L91.9308 126.626C91.9041 126.479 91.7972 126.372 91.6502 126.346H91.6369C91.49 126.332 91.3564 126.412 91.3029 126.533L90.9154 127.374L89.8333 129.739Z" fill="#F6921E"/>
<path opacity="0.5" d="M89.8335 129.739L90.0473 131.329L90.3679 131.369L90.5816 129.833L91.6504 126.346C91.5034 126.332 91.3698 126.412 91.3164 126.533L90.929 127.374L89.8335 129.739Z" fill="#F6921E"/>
<path d="M90.9155 127.401C91.0892 127.495 91.2762 127.548 91.4766 127.575C91.677 127.601 91.8774 127.601 92.0645 127.561L91.9175 126.64C91.8908 126.493 91.784 126.386 91.637 126.359C91.49 126.332 91.3564 126.412 91.2896 126.546L90.9155 127.401Z" fill="black"/>
<path d="M89.8333 129.739L84.8366 165.517C84.7966 165.851 85.0237 166.145 85.3443 166.198L86.8005 166.399C87.1345 166.439 87.4285 166.212 87.4819 165.891L92.4785 130.113L89.8333 129.739Z" fill="#39B597"/>
<path d="M85.3605 161.476L88.0068 161.846L87.698 164.055L85.0517 163.686L85.3605 161.476Z" fill="#FBC222"/>
<path d="M89.8336 129.739L84.837 165.517C84.7969 165.851 85.024 166.145 85.3446 166.198L85.4916 166.225L90.5684 129.846L89.8336 129.739Z" fill="black"/>
<path d="M83.6207 130.26L83.9813 131.823L85.7983 131.89L86.2793 130.354L85.6247 127.855L85.3975 126.96C85.3574 126.813 85.2372 126.72 85.0902 126.72H85.0769C84.9299 126.72 84.8097 126.813 84.7562 126.947L84.449 127.828L83.6207 130.26Z" fill="#F6921E"/>
<path opacity="0.5" d="M83.6203 130.26L83.9809 131.823L84.3016 131.836L84.3684 130.287L85.0898 126.72C84.9429 126.72 84.8227 126.813 84.7692 126.947L84.4619 127.828L83.6203 130.26Z" fill="#F6921E"/>
<path d="M84.463 127.815C84.6367 127.882 84.8371 127.922 85.0508 127.935C85.2512 127.949 85.4516 127.922 85.6387 127.855L85.4116 126.96C85.3715 126.813 85.2513 126.72 85.1043 126.72C84.9574 126.72 84.8238 126.8 84.7837 126.947L84.463 127.815Z" fill="black"/>
<path d="M83.621 130.26L82.1914 166.359C82.1781 166.693 82.4453 166.973 82.7659 166.987L84.2355 167.04C84.5695 167.053 84.8501 166.8 84.8634 166.466L86.293 130.367L83.621 130.26Z" fill="#462ABC"/>
<path d="M82.3633 162.324L85.0332 162.43L84.9446 164.66L82.2748 164.553L82.3633 162.324Z" fill="#FBC222"/>
<path d="M83.619 130.26L82.1895 166.359C82.1761 166.693 82.4433 166.973 82.764 166.987H82.9109L84.3672 130.287L83.619 130.26Z" fill="black"/>
<path d="M92.7588 134.108V167.521H70.8484V134.108H92.7588ZM72.2245 166.158H91.3828V135.484H72.2111V166.158H72.2245Z" fill="#F6921E"/>
<path d="M69.1385 169.926V168.363C69.1385 167.668 69.6997 167.107 70.3944 167.107H93.2267C93.9214 167.107 94.4824 167.668 94.4824 168.363V169.926H69.1385Z" fill="#F6921E"/>
<path d="M70.8484 134.108H72.1042L72.5986 134.602L73.0929 134.108H74.8297L73.467 135.47L75.6714 137.661L77.8757 135.47L76.5131 134.108H78.2499L78.7442 134.602L79.2385 134.108H80.9753L79.6126 135.47L81.8169 137.661L84.008 135.47L82.6453 134.108H84.382L84.8764 134.602L85.3708 134.108H87.1075L85.7448 135.47L87.9359 137.661L90.1402 135.47L88.7775 134.108H90.5143L91.0086 134.602L91.5029 134.108H92.7588V134.589L91.8771 135.47L92.7588 136.352V138.089L91.0086 136.339L88.8176 138.543L91.0086 140.734L92.7588 138.984V140.721L91.8771 141.603L92.7588 142.484V144.221L91.0086 142.471L88.8176 144.662L91.0086 146.866L92.7588 145.116V146.853L91.8771 147.735L92.7588 148.617V150.353L91.0086 148.603L88.8176 150.808L91.0086 152.999L92.7588 151.249V152.985L91.8771 153.867L92.7588 154.749V156.486L91.0086 154.736L88.8176 156.94L91.0086 159.131L92.7588 157.381V159.118L91.8771 159.999L92.7588 160.881V162.618L91.0086 160.868L88.8176 163.059L91.0086 165.263L92.7588 163.513V165.25L91.8771 166.132L92.7588 167.013V167.494H91.5029L91.0086 167L90.5143 167.494H88.7775L90.1402 166.132L87.9359 163.927L85.7448 166.132L87.1075 167.494H85.3708L84.8764 167L84.382 167.494H82.6453L84.008 166.132L81.8169 163.927L79.6126 166.132L80.9753 167.494H79.2385L78.7442 167L78.2499 167.494H76.5131L77.8757 166.132L75.6714 163.927L73.467 166.132L74.8297 167.494H73.0929L72.5986 167L72.1042 167.494H70.8484V167.013L71.7302 166.132L70.8484 165.25V163.513L72.5986 165.263L74.803 163.059L72.5986 160.868L70.8484 162.618V160.881L71.7302 159.999L70.8484 159.118V157.381L72.5986 159.131L74.803 156.94L72.5986 154.736L70.8484 156.486V154.749L71.7302 153.867L70.8484 152.985V151.249L72.5986 152.999L74.803 150.808L72.5986 148.603L70.8484 150.353V148.617L71.7302 147.735L70.8484 146.853V145.116L72.5986 146.866L74.803 144.662L72.5986 142.471L70.8484 144.221V142.484L71.7302 141.603L70.8484 140.721V138.984L72.5986 140.734L74.803 138.543L72.5986 136.339L70.8484 138.089V136.352L71.7302 135.47L70.8484 134.589V134.108ZM78.7442 136.339L76.5397 138.543L78.7442 140.734L80.9352 138.543L78.7442 136.339ZM84.8764 146.88L87.0808 144.675L84.8764 142.484L82.6854 144.675L84.8764 146.88ZM81.8036 145.557L79.5992 147.762L81.8036 149.966L83.9946 147.762L81.8036 145.557ZM82.672 150.821L84.8631 153.012L87.0674 150.821L84.8631 148.617L82.672 150.821ZM82.672 156.953L84.8631 159.144L87.0674 156.953L84.8631 154.749L82.672 156.953ZM84.008 153.894L81.8169 151.689L79.6126 153.894L81.8169 156.085L84.008 153.894ZM78.7442 154.762L76.5397 156.967L78.7442 159.158L80.9352 156.967L78.7442 154.762ZM80.9352 150.821L78.7442 148.617L76.5397 150.821L78.7442 153.012L80.9352 150.821ZM80.9352 144.675L78.7442 142.484L76.5397 144.675L78.7442 146.88L80.9352 144.675ZM79.6126 141.616L81.8169 143.82L84.008 141.616L81.8169 139.425L79.6126 141.616ZM84.8764 136.339L82.6854 138.543L84.8764 140.734L87.0808 138.543L84.8764 136.339ZM90.1402 141.616L87.9359 139.425L85.7448 141.616L87.9359 143.82L90.1402 141.616ZM90.1402 147.748L87.9359 145.544L85.7448 147.748L87.9359 149.953L90.1402 147.748ZM90.1402 153.894L87.9359 151.689L85.7448 153.894L87.9359 156.085L90.1402 153.894ZM90.1402 160.026L87.9359 157.835L85.7448 160.026L87.9359 162.23L90.1402 160.026ZM84.8764 165.29L87.0808 163.085L84.8764 160.894L82.6854 163.085L84.8764 165.29ZM84.008 160.026L81.8169 157.835L79.6126 160.026L81.8169 162.23L84.008 160.026ZM78.7442 165.29L80.9352 163.085L78.7442 160.894L76.5397 163.085L78.7442 165.29ZM73.467 160.026L75.6714 162.23L77.8757 160.026L75.6714 157.835L73.467 160.026ZM73.467 153.894L75.6714 156.085L77.8757 153.894L75.6714 151.689L73.467 153.894ZM73.467 147.748L75.6714 149.953L77.8757 147.748L75.6714 145.544L73.467 147.748ZM73.467 141.616L75.6714 143.82L77.8757 141.616L75.6714 139.425L73.467 141.616Z" fill="#F6921E"/>
<path d="M69.6612 294.387H275.605V302.043H69.6612V294.387Z" fill="#666666"/>
<path d="M243.876 174.722L246.494 186.332L279.841 334H292.186L258.839 186.332L256.22 174.722H243.876Z" fill="#999999"/>
<path d="M243.875 174.722L246.493 186.332H258.838L256.219 174.722H243.875Z" fill="black"/>
<path d="M101.39 174.722L98.7711 186.332L65.4245 334H53.0799L86.4264 186.332L89.045 174.722H101.39Z" fill="#999999"/>
<path d="M101.39 174.722L98.7711 186.332H86.4264L89.045 174.722H101.39Z" fill="black"/>
<path d="M56.9018 182.057H288.377C289.9 182.057 291.143 180.814 291.143 179.291V173.052C291.143 171.529 289.9 170.286 288.377 170.286H56.9018C55.3788 170.286 54.1363 171.529 54.1363 173.052V179.291C54.1363 180.828 55.3654 182.057 56.9018 182.057Z" fill="#666666"/>
<path d="M19.7739 247.16C17.5027 245.931 14.7238 245.677 12.2789 246.479C11.4773 246.733 10.6891 247.12 10.168 247.788C9.33972 248.857 9.43323 250.42 10.0745 251.609C10.7158 252.785 11.8113 253.653 12.9336 254.401C17.476 257.407 22.7933 258.97 28.0571 260.293C26.2535 260.493 24.4766 260.974 22.82 261.709C22.2589 261.963 21.6977 262.257 21.3503 262.765C20.4686 264.034 21.4439 265.784 22.6329 266.773C26.0531 269.632 30.8894 269.805 35.218 270.874C37.3957 271.408 39.4933 272.183 41.6041 272.958C42.9669 273.466 44.6903 274.294 46.0129 273.426C46.0664 273.386 46.1332 273.346 46.1866 273.306C50.7424 284.742 51.6909 296.859 51.584 298.262C51.584 298.249 51.5974 298.222 51.5974 298.195L52.7731 298.583C52.9868 297.928 52.1852 284.528 47.055 272.103C48.0169 269.779 47.055 265.771 47.536 263.526C47.6028 263.205 47.6695 262.871 47.7497 262.537C48.9387 256.886 49.874 250.807 47.2688 245.717C46.4805 244.167 44.904 242.604 43.2474 243.112C41.3102 243.7 41.1232 246.345 39.9876 248.015C40.3216 246.038 40.0677 244.047 39.5466 242.11C39.2126 240.867 38.7718 239.625 38.3042 238.436C37.3289 235.938 36.0731 233.292 33.6683 232.09C32.3056 231.409 30.3683 231.435 29.5267 232.705C29.1659 233.252 29.0591 233.92 28.9923 234.575C28.8186 236.138 28.7652 237.728 28.832 239.304C26.3203 234.455 22.1787 230.473 17.2355 228.135C15.1246 227.147 12.4526 226.492 10.5688 227.895C10.4352 227.988 10.315 228.095 10.1948 228.216C9.05919 229.324 8.6851 231.088 8.93894 232.678C9.2195 234.428 10.1547 235.991 11.1567 237.447C13.5882 241.028 16.4873 244.301 19.7739 247.16Z" fill="#39B597"/>
<path d="M40.2942 250.554C41.6302 254.936 44.3423 258.783 47.4151 262.19C47.522 262.31 47.6289 262.431 47.7491 262.537C48.9382 256.886 49.8734 250.807 47.2682 245.717C46.48 244.167 44.9035 242.604 43.2468 243.112C41.3096 243.7 41.1226 246.345 39.987 248.015C40.321 246.038 40.0671 244.047 39.5461 242.11C39.0384 244.902 39.5461 248.069 40.2942 250.554Z" fill="black"/>
<path d="M42.2618 244.261C42.8363 249.244 46.6305 253.132 49.3426 257.354C50.7053 259.478 51.8142 261.749 52.923 264.007C53.5643 265.29 54.2056 267 55.555 267.614C55.5817 267.628 55.6084 267.641 55.6351 267.654C55.1675 272.277 53.9651 280.346 50.9458 292.958L52.1482 293.252C55.1809 280.574 56.3967 272.517 56.8776 267.841H56.891C56.9845 267.828 57.0647 267.828 57.1582 267.815C60.0974 267.32 62.6892 262.551 65.0673 260.934C70.7052 257.1 76.7172 252.758 78.6544 246.212C78.8815 245.45 79.0018 244.582 78.9484 243.767C78.8682 242.578 78.4273 241.496 77.3852 240.975C75.3545 239.946 73.1501 241.963 70.919 242.444C73.8849 240.226 75.5682 236.739 76.971 233.319C78.12 230.527 79.1487 227.401 78.12 224.555C77.5321 222.939 75.9423 221.456 74.259 221.843C73.5375 222.003 72.9363 222.471 72.3752 222.952C71.0125 224.101 69.7433 225.343 68.581 226.679C70.2911 220.774 70.0105 214.321 67.7793 208.59C66.8308 206.145 65.1608 203.567 62.569 203.233C62.5556 203.233 62.5556 203.233 62.5422 203.233C60.565 202.992 58.6411 204.208 57.5189 205.864C56.3966 207.508 55.9424 209.498 55.6218 211.462C54.8202 216.285 54.6465 221.215 55.1141 226.092C54.2056 223.339 52.1482 220.988 49.5296 219.719C48.6746 219.305 47.726 219.011 46.7908 219.144C45.2945 219.371 44.1589 220.721 43.7581 222.177C43.3573 223.633 43.5844 225.196 43.9318 226.666C45.2945 232.625 48.4207 238.022 51.6806 243.192C50.064 241.95 48.247 240.975 46.3098 240.293C45.6685 240.066 44.9739 239.866 44.2925 240.013C42.6225 240.347 42.0614 242.524 42.2618 244.261Z" fill="#39B597"/>
<path d="M56.8249 266.198C56.9318 266.733 57.0386 267.267 57.1455 267.801C60.0847 267.307 62.6765 262.538 65.0546 260.921C70.6925 257.087 76.7045 252.745 78.6417 246.198C78.8688 245.437 78.9891 244.568 78.9357 243.753C77.5596 244.836 76.3304 246.465 75.2883 247.347C74.7406 245.183 72.1621 243.954 69.9844 244.435C67.8068 244.916 66.0967 246.706 65.1615 248.737C64.2263 250.767 63.9457 253.025 63.6919 255.243C60.4454 255.016 57.2123 257.421 56.5042 260.6C56.1034 262.431 56.4642 264.341 56.8249 266.198Z" fill="black"/>
<path opacity="0.5" d="M42.2609 244.261C42.8353 249.244 46.6296 253.132 49.3416 257.354C50.7044 259.478 51.8132 261.749 52.9221 264.007C53.5634 265.29 54.2047 267 55.5541 267.614C56.0484 266.252 55.7945 264.622 55.5273 263.152C54.846 259.545 54.1913 255.858 54.6723 252.224C54.8459 250.901 55.2868 249.445 56.4492 248.777C57.0236 248.443 57.7184 248.363 58.3062 248.042C59.5487 247.347 60.0029 245.717 59.7357 244.328C59.4819 242.938 58.6535 241.723 57.8519 240.547C56.8633 239.104 55.8747 237.675 54.8861 236.232C54.2982 235.377 53.6836 234.455 53.6035 233.413C53.5233 232.371 54.2047 231.195 55.2467 231.128C56.5159 231.048 57.371 232.518 58.6268 232.785C59.7758 233.025 60.898 232.104 61.3389 231.021C61.7664 229.926 61.673 228.71 61.5794 227.548C61.1252 221.402 61.0584 215.216 61.4057 209.058C61.5126 207.067 62.1806 205.17 62.5947 203.233C62.5814 203.233 62.5814 203.233 62.5681 203.233C60.5908 202.992 58.6669 204.208 57.5447 205.864C56.4225 207.508 55.9682 209.498 55.6476 211.462C54.846 216.285 54.6723 221.215 55.1399 226.092C54.2314 223.339 52.174 220.988 49.5554 219.719C48.7004 219.305 47.7518 219.011 46.8166 219.144C45.3203 219.371 44.1847 220.721 43.7839 222.177C43.3831 223.633 43.6102 225.196 43.9576 226.666C45.3203 232.625 48.4465 238.022 51.7064 243.192C50.0898 241.95 48.2728 240.974 46.3356 240.293C45.6944 240.066 44.9996 239.866 44.3183 240.013C42.6215 240.347 42.0605 242.524 42.2609 244.261Z" fill="#31A186"/>
<path d="M53.8689 299.678L55.098 299.598C55.098 299.491 54.5636 289.311 62.8869 279.531C63.9022 279.999 65.1447 279.384 66.1334 278.997C67.7633 278.356 69.3932 277.714 71.0899 277.274C74.4567 276.378 78.2242 276.165 80.8695 273.88C81.7779 273.092 82.5127 271.702 81.8046 270.727C81.524 270.34 81.0832 270.113 80.6423 269.926C79.333 269.378 77.9436 269.017 76.5275 268.897C80.629 267.775 84.7706 266.479 88.2709 264.06C89.1393 263.459 89.981 262.778 90.4619 261.843C90.9429 260.908 90.9963 259.678 90.3283 258.863C89.9141 258.356 89.2862 258.062 88.6583 257.875C86.7211 257.3 84.5568 257.527 82.8066 258.516C85.3316 256.232 87.5628 253.626 89.4198 250.781C90.168 249.618 90.876 248.389 91.0764 247.013C91.2768 245.65 90.8627 244.114 89.7271 243.312C89.687 243.286 89.6603 243.259 89.6202 243.246C88.1373 242.27 86.1199 242.818 84.5167 243.606C80.6824 245.503 77.516 248.683 75.6189 252.504C75.6456 251.275 75.5789 250.032 75.4319 248.817C75.3651 248.309 75.2716 247.788 74.9777 247.36C74.2963 246.385 72.7866 246.399 71.7178 246.946C69.8608 247.922 68.9256 250.006 68.1908 251.983C67.309 254.388 66.5341 256.98 67.0151 259.505C66.0932 258.209 65.9196 256.138 64.3832 255.724C63.0739 255.363 61.8715 256.606 61.2703 257.821C59.1861 262.083 60.2416 267.133 61.3238 271.756C61.6845 273.266 61.2168 275.831 61.5909 277.661C61.6711 278.048 61.7914 278.396 61.965 278.703C53.281 288.817 53.8422 299.211 53.8689 299.678Z" fill="#39B597"/>
<path opacity="0.5" d="M19.7736 247.16C17.5024 245.931 14.7236 245.677 12.2787 246.479C11.4771 246.733 10.6888 247.12 10.1678 247.788C9.33949 248.857 9.43299 250.42 10.0743 251.609C10.7156 252.785 11.8111 253.653 12.9333 254.401C17.4757 257.407 22.793 258.97 28.0569 260.293C26.2533 260.493 24.4764 260.974 22.8198 261.709C22.2586 261.963 21.6975 262.257 21.3501 262.765C20.4684 264.034 21.4437 265.784 22.6327 266.773C26.0529 269.632 30.8892 269.805 35.2178 270.874C37.3955 271.408 39.493 272.183 41.6039 272.958C42.9666 273.466 44.6901 274.294 46.0127 273.426C45.7455 271.716 44.0221 270.3 42.4189 269.351C40.2278 268.055 37.97 266.92 35.632 265.931C34.817 265.584 33.9753 265.25 33.3875 264.608C32.7863 263.967 32.5324 262.912 33.0535 262.203C33.8417 261.135 35.7923 261.495 36.487 260.36C37.1417 259.304 36.1263 258.008 35.1243 257.274C33.0668 255.764 30.6755 254.708 28.1771 254.201C26.8278 253.92 25.3849 253.773 24.3161 252.905C23.2473 252.036 22.9267 250.113 24.089 249.391C25.3315 248.616 27.1484 249.765 28.3775 248.964C27.469 246.546 25.1444 244.996 23.0736 243.446C19.1725 240.534 15.7122 237.02 12.8398 233.079C11.771 231.596 10.7156 229.952 10.1812 228.202C9.04558 229.311 8.6715 231.075 8.92533 232.665C9.20589 234.415 10.1411 235.978 11.1431 237.434C13.588 241.028 16.4871 244.301 19.7736 247.16Z" fill="#31A186"/>
<path opacity="0.5" d="M61.3493 271.716C61.7101 273.225 61.2425 275.791 61.6166 277.621C62.3113 277.327 62.8992 276.712 63.2332 276.018C63.7141 275.056 63.821 273.96 63.9145 272.891C64.1817 270.059 64.4489 267.24 64.7161 264.408C64.7829 263.673 64.9833 262.765 65.7047 262.578C66.3059 262.417 66.8938 262.898 67.2278 263.419C67.5618 263.94 67.7889 264.555 68.2565 264.956C69.3387 265.864 71.1155 265.049 71.69 263.767C72.2644 262.484 71.9973 261.001 71.7167 259.625C71.4362 258.249 71.169 256.766 71.7167 255.47C71.8236 255.23 71.9705 254.989 72.1977 254.869C72.7053 254.602 73.3199 255.096 73.547 255.617C73.7741 256.138 73.8276 256.766 74.1616 257.234C74.6159 257.875 75.5243 258.048 76.2858 257.848C77.0473 257.648 77.6753 257.153 78.2498 256.619C80.8149 254.214 82.5383 251.061 84.6358 248.229C85.7848 246.692 87.0273 244.889 88.6706 243.833C88.9778 243.633 89.2985 243.446 89.6191 243.246C88.1362 242.27 86.1188 242.818 84.5156 243.606C80.6813 245.503 77.5149 248.683 75.6178 252.504C75.6445 251.275 75.5778 250.032 75.4308 248.817C75.364 248.309 75.2705 247.788 74.9766 247.36C74.2952 246.385 72.7855 246.399 71.7167 246.946C69.8597 247.922 68.9245 250.006 68.1897 251.983C67.3079 254.388 66.533 256.98 67.014 259.505C66.0921 258.209 65.9185 256.138 64.3821 255.724C63.0728 255.363 61.8704 256.606 61.2692 257.821C59.2251 262.057 60.2672 267.107 61.3493 271.716Z" fill="#31A186"/>
<path d="M29.6878 284.461L32.2262 297.981L33.7492 306.171L38.9596 334H73.0143L78.0777 306.946L79.7611 297.955L82.2861 284.461H29.6878Z" fill="#D35A24"/>
<path d="M32.2259 297.981L33.7489 306.158C33.8157 306.104 33.8959 306.064 33.976 306.011C35.7262 305.009 38.0108 305.931 39.4403 307.36C40.2152 308.135 40.8431 309.043 41.658 309.765C42.473 310.486 43.5552 311.034 44.624 310.847C46.8952 310.46 47.483 307.454 49.1931 305.917C50.6493 304.608 52.9072 304.488 54.7241 305.196C56.5544 305.904 58.024 307.307 59.2932 308.79C60.2151 309.858 61.1636 311.061 62.5397 311.382C64.3967 311.809 66.1736 310.433 67.4161 308.977C68.6586 307.534 69.8343 305.824 71.6512 305.249C73.8289 304.555 76.1268 305.717 78.0774 306.946L79.7607 297.941C79.1996 297.621 78.6652 297.273 78.1308 296.939C76.1802 295.71 73.8556 294.508 71.6512 295.216C69.8343 295.79 68.6586 297.5 67.4161 298.943C66.1736 300.386 64.3967 301.776 62.5397 301.348C61.1636 301.041 60.2151 299.838 59.2932 298.77C58.0107 297.287 56.5411 295.884 54.7241 295.176C52.8938 294.468 50.6493 294.588 49.1931 295.897C47.483 297.434 46.8952 300.44 44.624 300.827C43.5552 301.014 42.473 300.466 41.658 299.745C40.8431 299.023 40.2152 298.115 39.4403 297.34C38.0108 295.911 35.7262 294.975 33.976 295.977C33.1878 296.445 32.6667 297.18 32.2259 297.981Z" fill="#FBC222"/>
</svg>
