<svg width="380" height="327" viewBox="0 0 380 327" fill="none" xmlns="http://www.w3.org/2000/svg">
<path d="M43.0389 79.3246L169.678 79.3246V73.7683L43.0389 73.7683V79.3246Z" fill="#EBEBEB"/>
<path d="M162.573 79.331H157.018V97.7028H162.573V79.331Z" fill="#EBEBEB"/>
<path d="M162.573 79.331H157.018V85.009H162.573V79.331Z" fill="#DBDBDB"/>
<path d="M55.6865 79.331H50.1309V97.7028H55.6865V79.331Z" fill="#EBEBEB"/>
<path d="M55.6865 79.331H50.1309V85.009H55.6865V79.331Z" fill="#DBDBDB"/>
<path d="M146.037 73.7715V38.3734H137.122V73.7715H146.037Z" fill="#C7C7C7"/>
<path d="M146.039 40.3748V36.4831H137.124V40.3748H146.039Z" fill="#DBDBDB"/>
<path d="M146.037 46.8021V45.3578H137.122V46.8021H146.037Z" fill="#DBDBDB"/>
<path d="M146.035 69.1336V65.2418H136.011V69.1336H146.035Z" fill="#DBDBDB"/>
<path d="M137.121 73.775V32.4784H130.889V73.775H137.121Z" fill="#DBDBDB"/>
<path d="M135.902 52.2384V36.3598H132.163V52.2384H135.902Z" fill="#EBEBEB"/>
<path d="M90.9543 73.7873L120.32 44.7558L115.939 40.323L86.5732 69.3545L90.9543 73.7873Z" fill="#C7C7C7"/>
<path d="M96.9568 66.072L108.248 54.9093L105.619 52.2496L94.3281 63.4123L96.9568 66.072Z" fill="#DBDBDB"/>
<path d="M130.898 73.7762V42.4142H120.319V73.7762H130.898Z" fill="#A6A6A6"/>
<path d="M130.9 70.4583V67.5319H120.321V70.4583H130.9Z" fill="#C7C7C7"/>
<path d="M130.898 65.6141V64.4815H120.319V65.6141H130.898Z" fill="#C7C7C7"/>
<path d="M153.346 73.7815V44.3046H146.042V73.7815H153.346Z" fill="#A6A6A6"/>
<path d="M153.348 70.6513V67.9073H146.044V70.6513H153.348Z" fill="#C7C7C7"/>
<path d="M153.348 53.1225V50.3785H146.044V53.1225H153.348Z" fill="#C7C7C7"/>
<path d="M153.342 56.0745V55.0104H146.038V56.0745H153.342Z" fill="#C7C7C7"/>
<path d="M68.6442 36.0126C74.8762 42.1162 75.925 51.5567 74.6102 59.8343C74.5798 60.0243 74.2834 59.9711 74.2834 59.7963C74.2834 57.9112 74.3366 56.049 74.3366 54.1867C74.3062 54.1031 74.2758 54.0195 74.2378 53.9359C72.6114 52.7501 71.1142 51.4123 70.187 49.5805C69.1458 47.5358 68.7354 45.2251 67.9374 43.0816C67.8614 42.8763 68.0818 42.9371 68.2262 43.0435C72.0186 45.8407 73.227 48.8508 74.3138 52.8717C74.2606 50.7814 74.101 48.6987 73.6526 46.6084C72.8318 42.7927 71.213 39.0074 68.4694 36.1722C68.3782 36.0734 68.5302 35.9061 68.6442 36.0126Z" fill="#A6A6A6"/>
<path d="M67.475 36.7271C66.4034 36.7651 65.727 38.4753 64.891 38.977C64.4502 39.243 64.017 39.2278 63.7054 38.7946C62.877 37.6392 64.017 36.2102 65.081 35.4121C64.3134 35.7237 63.6826 36.2786 62.8618 36.4382C62.3602 36.5294 61.9726 36.347 61.8586 35.8378C61.4938 34.2643 63.4698 33.5574 64.8302 33.527C64.169 33.071 62.2918 31.8244 63.2874 31.2163C64.2982 30.6006 66.5098 32.3793 67.2318 32.9646C68.2882 33.8235 69.5574 35.108 69.603 36.4534C69.6714 38.0193 68.2958 37.0539 67.475 36.7271Z" fill="#DBDBDB"/>
<path d="M67.78 36.9931C66.412 36.3698 63.7748 37.2668 63.5544 36.7499C63.0984 35.6933 65.2036 34.9712 66.3436 34.8268C65.2948 34.5456 63.296 34.0895 63.3568 33.0786C63.4328 31.8472 66.4348 32.9037 67.9472 34.0667C69.8624 35.5337 69.8472 36.9475 69.528 37.2363C69.0948 37.624 68.008 37.0919 67.78 36.9931Z" fill="#EBEBEB"/>
<path d="M82.8413 35.4121C76.3813 41.2725 74.9753 50.6674 75.9709 58.983C76.0013 59.173 76.2901 59.135 76.2977 58.9526C76.3661 57.0675 76.3813 55.2053 76.4573 53.343C76.4953 53.2594 76.5257 53.1834 76.5637 53.0998C78.2357 51.9824 79.7785 50.6978 80.7741 48.904C81.8913 46.8973 82.3853 44.6018 83.2669 42.4963C83.3505 42.2911 83.1301 42.3443 82.9781 42.4431C79.0793 45.0958 77.7569 48.0527 76.5181 52.0356C76.6473 49.9529 76.8905 47.8702 77.4149 45.8028C78.3801 42.0174 80.1433 38.3005 82.9933 35.5717C83.1073 35.4729 82.9553 35.3057 82.8413 35.4121Z" fill="#A6A6A6"/>
<path d="M83.9794 36.1646C85.051 36.2406 85.659 37.9813 86.4722 38.5134C86.9054 38.7946 87.3386 38.7946 87.6654 38.3689C88.5394 37.244 87.4526 35.777 86.419 34.9409C87.1714 35.2829 87.7794 35.8606 88.6002 36.0506C89.0942 36.1646 89.4894 35.9898 89.6262 35.4881C90.0518 33.9299 88.0986 33.1546 86.7458 33.0634C87.4222 32.6301 89.3526 31.4596 88.3722 30.8135C87.3842 30.1598 85.1042 31.8548 84.3594 32.4097C83.265 33.2306 81.9578 34.462 81.859 35.8074C81.7374 37.3732 83.1434 36.4611 83.9794 36.1646Z" fill="#DBDBDB"/>
<path d="M83.6614 36.4154C85.0522 35.8454 87.6514 36.8411 87.8946 36.3318C88.3886 35.2905 86.3138 34.4924 85.1814 34.3023C86.2378 34.0591 88.2594 33.6867 88.2366 32.6757C88.2062 31.4443 85.1738 32.3869 83.6082 33.489C81.6398 34.88 81.6018 36.2938 81.9058 36.5903C82.3238 37.0007 83.4334 36.5143 83.6614 36.4154Z" fill="#EBEBEB"/>
<path d="M76.2279 50.8954C75.7491 53.9815 75.1563 57.1815 74.2215 60.1611C74.1303 60.4348 73.7275 60.3664 73.7731 60.0699C74.1987 57.2119 74.9739 54.4071 75.3919 51.5567C75.8251 48.6683 76.0531 45.7343 75.8859 42.8155C75.6123 38.004 74.3051 32.8809 71.1663 29.1184C71.0979 29.0272 71.2423 28.9056 71.3183 28.9892C77.6035 36.3242 76.6079 45.3087 76.6003 46.1144C77.4895 43.0816 78.4091 39.6003 81.7759 36.5066C81.9203 36.3698 82.0343 36.4382 82.0115 36.6663C81.4111 42.2986 79.8455 45.2327 76.5775 48.2427C76.4863 49.1244 76.3723 50.0137 76.2279 50.8954Z" fill="#A6A6A6"/>
<path d="M71.1144 29.9545C69.982 29.4529 68.424 30.8895 67.3068 30.9883C66.714 31.0415 66.2732 30.8059 66.1744 30.1978C65.8932 28.5787 67.7932 27.6742 69.3056 27.3854C68.3556 27.3246 67.4208 27.583 66.486 27.3322C65.9236 27.1725 65.612 26.7849 65.7488 26.2072C66.1668 24.3906 68.5684 24.6566 69.9896 25.3027C69.5412 24.497 68.2112 22.2623 69.5564 22.1254C70.9168 21.9962 72.3152 24.953 72.7712 25.926C73.44 27.355 74.1012 29.3236 73.478 30.745C72.7484 32.4021 71.806 30.707 71.1144 29.9545Z" fill="#DBDBDB"/>
<path d="M71.3048 30.3802C70.1952 29.0424 67.0108 28.6471 67.0412 27.9935C67.102 26.6709 69.648 26.9749 70.902 27.4006C69.9596 26.5797 68.1052 25.1051 68.6752 24.0865C69.3744 22.8475 71.9508 25.4547 72.9388 27.431C74.1852 29.9165 73.4632 31.3759 72.992 31.5127C72.346 31.7028 71.4872 30.6082 71.3048 30.3802Z" fill="#EBEBEB"/>
<path d="M80.3734 52.5829L83.1474 73.7747H66.2754C66.625 71.8972 69.7638 52.5601 69.7638 52.5601L80.3734 52.5829Z" fill="#DBDBDB"/>
<path d="M281.663 58.01C282.195 55.9045 283.016 54.0955 284.126 52.5905C285.235 51.0855 287.021 49.9833 289.491 49.2764C290.236 49.0484 291.141 48.8127 292.212 48.5543C293.284 48.2959 294.355 47.9386 295.435 47.475C296.514 47.0113 297.479 46.4032 298.338 45.6279C299.197 44.8602 299.774 43.8721 300.078 42.6711C300.306 41.7666 300.337 40.9305 300.162 40.1551C299.987 39.3798 299.683 38.6881 299.242 38.0724C298.801 37.4568 298.231 36.9399 297.54 36.5142C296.848 36.0886 296.111 35.7769 295.336 35.5793C294.386 35.3437 293.489 35.2829 292.63 35.4121C291.771 35.5413 290.973 35.7769 290.221 36.1114C289.469 36.4458 288.769 36.8715 288.123 37.3656C287.47 37.8672 286.9 38.3537 286.421 38.825L281.777 33.5422C282.674 32.3489 283.708 31.3531 284.893 30.555C286.079 29.7569 287.348 29.1488 288.716 28.7383C290.077 28.3279 291.49 28.1075 292.965 28.0923C294.431 28.0771 295.898 28.2443 297.365 28.6167C298.999 29.0272 300.557 29.6733 302.024 30.5474C303.498 31.4215 304.737 32.5313 305.748 33.8843C306.759 35.2373 307.458 36.8183 307.845 38.6349C308.233 40.4516 308.149 42.4735 307.587 44.7158C307.237 46.0916 306.774 47.2697 306.189 48.2427C305.603 49.2156 304.897 50.0593 304.076 50.7662C303.255 51.4731 302.351 52.0736 301.363 52.5525C300.375 53.0389 299.28 53.4722 298.087 53.8523C297.099 54.1487 296.111 54.4299 295.131 54.6884C294.15 54.9468 293.231 55.2737 292.379 55.6765C291.521 56.0794 290.776 56.6038 290.13 57.2423C289.491 57.8808 289.035 58.7397 288.762 59.8115L281.663 58.01ZM278.008 73.0829L280.25 64.1745L287.417 65.976L285.175 74.8844L278.008 73.0829Z" fill="#EBEBEB"/>
<path d="M55.5415 223.219C55.8683 224.785 55.9139 226.252 55.6631 227.613C55.4123 228.973 54.5839 230.281 53.1779 231.55C52.7599 231.938 52.2355 232.394 51.6047 232.91C50.9739 233.427 50.3811 234.013 49.8187 234.666C49.2563 235.32 48.8079 236.042 48.4887 236.825C48.1695 237.608 48.1011 238.452 48.2911 239.349C48.4355 240.025 48.6863 240.588 49.0511 241.044C49.4159 241.5 49.8415 241.865 50.3355 242.131C50.8295 242.397 51.3691 242.556 51.9695 242.617C52.5699 242.678 53.1551 242.647 53.7327 242.526C54.4395 242.381 55.0551 242.123 55.5795 241.758C56.1039 241.393 56.5599 240.983 56.9475 240.519C57.3351 240.055 57.6619 239.546 57.9355 239.007C58.2091 238.467 58.4295 237.958 58.5967 237.486L63.3847 239.493C63.1795 240.572 62.8071 241.568 62.2827 242.488C61.7583 243.4 61.1047 244.213 60.3371 244.928C59.5695 245.642 58.6955 246.243 57.7303 246.729C56.7651 247.216 55.7315 247.573 54.6447 247.801C53.4287 248.059 52.1899 248.135 50.9283 248.029C49.6667 247.923 48.4887 247.588 47.3791 247.018C46.2695 246.448 45.2967 245.627 44.4531 244.548C43.6095 243.468 43.0091 242.1 42.6595 240.436C42.4467 239.409 42.3707 238.482 42.4467 237.646C42.5227 236.81 42.7203 236.027 43.0319 235.29C43.3435 234.552 43.7539 233.868 44.2555 233.23C44.7571 232.591 45.3423 231.945 46.0111 231.307C46.5735 230.79 47.1359 230.281 47.6983 229.794C48.2683 229.308 48.7699 228.791 49.2031 228.251C49.6439 227.704 49.9707 227.118 50.1911 226.488C50.4115 225.857 50.4343 225.142 50.2671 224.336L55.5415 223.219ZM53.0943 212.038L54.4851 218.674L49.1499 219.791L47.7591 213.155L53.0943 212.038Z" fill="#EBEBEB"/>
<path d="M294.888 155.395C295.838 156.687 296.484 158.002 296.819 159.34C297.153 160.678 296.948 162.213 296.196 163.954C295.975 164.486 295.686 165.109 295.329 165.846C294.972 166.576 294.676 167.359 294.432 168.187C294.189 169.016 294.09 169.852 294.121 170.703C294.159 171.555 294.448 172.345 294.995 173.083C295.405 173.637 295.869 174.048 296.393 174.314C296.918 174.58 297.457 174.732 298.012 174.77C298.567 174.808 299.129 174.724 299.699 174.534C300.269 174.337 300.786 174.063 301.265 173.713C301.842 173.288 302.298 172.801 302.625 172.254C302.952 171.707 303.195 171.137 303.355 170.559C303.514 169.974 303.606 169.381 303.621 168.773C303.644 168.165 303.628 167.617 303.59 167.116L308.774 166.948C309.032 168.02 309.116 169.077 309.017 170.126C308.918 171.175 308.667 172.186 308.264 173.159C307.862 174.124 307.322 175.036 306.646 175.88C305.969 176.723 305.179 177.476 304.282 178.137C303.279 178.875 302.184 179.46 300.999 179.893C299.813 180.319 298.597 180.509 297.351 180.448C296.104 180.387 294.881 180.045 293.665 179.414C292.449 178.783 291.332 177.788 290.321 176.419C289.698 175.576 289.249 174.762 288.968 173.964C288.687 173.174 288.542 172.376 288.52 171.578C288.497 170.779 288.588 169.981 288.77 169.191C288.96 168.4 289.226 167.572 289.568 166.713C289.865 166.006 290.169 165.314 290.48 164.638C290.792 163.961 291.035 163.285 291.21 162.608C291.385 161.932 291.438 161.263 291.37 160.594C291.309 159.925 291.028 159.264 290.549 158.61L294.888 155.395ZM288.018 146.243L292.038 151.693L287.653 154.931L283.633 149.481L288.018 146.243Z" fill="#EBEBEB"/>
<path d="M319.84 141.682C319.84 139.919 320.129 138.338 320.706 136.932C321.284 135.526 322.469 134.309 324.271 133.261C324.81 132.934 325.479 132.569 326.269 132.151C327.06 131.74 327.835 131.246 328.587 130.669C329.34 130.091 329.978 129.422 330.503 128.647C331.027 127.871 331.285 126.982 331.285 125.979C331.285 125.226 331.141 124.557 330.852 123.98C330.563 123.402 330.183 122.915 329.72 122.52C329.249 122.125 328.701 121.829 328.071 121.631C327.44 121.433 326.801 121.334 326.155 121.334C325.365 121.334 324.643 121.471 323.997 121.737C323.351 122.003 322.766 122.353 322.241 122.763C321.717 123.174 321.253 123.645 320.835 124.17C320.425 124.694 320.068 125.188 319.787 125.652L315.09 122.414C315.553 121.296 316.177 120.308 316.952 119.449C317.727 118.583 318.609 117.861 319.597 117.26C320.585 116.667 321.656 116.219 322.804 115.907C323.951 115.603 325.145 115.451 326.368 115.451C327.736 115.451 329.081 115.649 330.411 116.044C331.741 116.439 332.935 117.07 333.999 117.937C335.063 118.803 335.921 119.905 336.59 121.258C337.259 122.611 337.586 124.215 337.586 126.085C337.586 127.24 337.449 128.251 337.183 129.133C336.909 130.015 336.529 130.813 336.02 131.535C335.519 132.257 334.926 132.903 334.242 133.481C333.558 134.059 332.783 134.614 331.924 135.153C331.202 135.586 330.487 135.997 329.765 136.392C329.043 136.787 328.39 137.228 327.797 137.715C327.204 138.201 326.718 138.756 326.338 139.387C325.958 140.018 325.768 140.778 325.768 141.682H319.84ZM319.946 154.255V146.806H325.935V154.255H319.946Z" fill="#EBEBEB"/>
<path d="M132.483 184.864C132.118 183.139 132.072 181.535 132.346 180.037C132.62 178.548 133.524 177.103 135.067 175.712C135.53 175.287 136.1 174.785 136.792 174.215C137.484 173.645 138.137 172.999 138.753 172.284C139.376 171.562 139.855 170.772 140.204 169.905C140.554 169.039 140.622 168.119 140.417 167.131C140.258 166.394 139.984 165.77 139.581 165.269C139.178 164.767 138.707 164.372 138.168 164.075C137.628 163.786 137.028 163.612 136.374 163.543C135.72 163.482 135.074 163.513 134.436 163.65C133.661 163.817 132.984 164.098 132.407 164.493C131.829 164.889 131.328 165.345 130.902 165.861C130.476 166.378 130.119 166.933 129.823 167.526C129.526 168.119 129.283 168.681 129.101 169.198L123.834 167.002C124.062 165.816 124.465 164.714 125.042 163.71C125.62 162.707 126.327 161.81 127.178 161.027C128.022 160.244 128.979 159.583 130.036 159.043C131.1 158.504 132.224 158.108 133.425 157.858C134.763 157.576 136.123 157.485 137.506 157.599C138.89 157.713 140.189 158.078 141.405 158.701C142.621 159.325 143.693 160.229 144.628 161.407C145.555 162.585 146.216 164.098 146.604 165.922C146.839 167.047 146.923 168.073 146.839 168.985C146.756 169.905 146.543 170.764 146.201 171.577C145.859 172.383 145.41 173.143 144.863 173.85C144.316 174.557 143.67 175.264 142.94 175.971C142.325 176.541 141.709 177.096 141.086 177.636C140.463 178.175 139.916 178.738 139.437 179.338C138.958 179.939 138.601 180.585 138.358 181.276C138.122 181.968 138.092 182.759 138.282 183.64L132.483 184.864ZM135.196 197.14L133.653 189.858L139.513 188.619L141.056 195.901L135.196 197.14Z" fill="#EBEBEB"/>
<path d="M315.24 243.826L325.394 243.613L330.395 243.529C332.059 243.491 333.708 243.499 335.373 243.491L335.031 243.833L334.993 235.328L335.373 235.708L325.31 235.662C321.959 235.654 318.6 235.578 315.248 235.54L315.453 235.335C315.438 236.726 315.385 238.125 315.354 239.546L315.24 243.826ZM315.24 243.826L315.134 239.615C315.096 238.193 315.05 236.757 315.035 235.32V235.115H315.248C318.6 235.077 321.959 234.993 325.31 234.993L335.373 234.948H335.753V235.328L335.715 243.833V244.175H335.38C333.686 244.16 331.983 244.168 330.296 244.137L325.234 244.054L315.24 243.826Z" fill="#EBEBEB"/>
<path d="M326.467 254.551L336.621 254.338L341.621 254.254C343.286 254.216 344.935 254.224 346.599 254.216L346.257 254.551L346.219 246.045L346.599 246.425L336.537 246.38C333.185 246.38 329.826 246.296 326.475 246.258L326.68 246.053C326.665 247.444 326.611 248.842 326.581 250.264L326.467 254.551ZM326.467 254.551L326.361 250.34C326.323 248.918 326.277 247.482 326.262 246.045V245.84H326.475C329.826 245.802 333.185 245.718 336.537 245.718L346.599 245.673H346.979V246.053L346.934 254.551V254.893H346.599C344.905 254.878 343.202 254.885 341.515 254.855L336.453 254.771L326.467 254.551Z" fill="#EBEBEB"/>
<path d="M304.018 254.551L314.171 254.338L319.172 254.254C320.836 254.216 322.486 254.224 324.15 254.216L323.808 254.558L323.762 246.045L324.142 246.425L314.08 246.38C310.729 246.38 307.369 246.296 304.018 246.258L304.223 246.053C304.208 247.444 304.155 248.842 304.124 250.264L304.018 254.551ZM304.018 254.551L303.911 250.34C303.873 248.918 303.828 247.482 303.812 246.045V245.84H304.025C307.377 245.802 310.736 245.718 314.088 245.718L324.15 245.673H324.53V246.053L324.485 254.551V254.893H324.15C322.455 254.878 320.753 254.885 319.066 254.855L314.004 254.771L304.018 254.551Z" fill="#EBEBEB"/>
<path d="M44.6349 254.551L54.7885 254.338L59.7893 254.254C61.4537 254.216 63.1029 254.224 64.7673 254.216L64.4177 254.551L64.3797 246.045L64.7597 246.425L54.6973 246.38C51.3457 246.38 47.9865 246.296 44.6349 246.258L44.8401 246.053C44.8249 247.444 44.7717 248.842 44.7413 250.264L44.6349 254.551ZM44.6349 254.551L44.5285 250.34C44.4905 248.918 44.4449 247.482 44.4297 246.045V245.84H44.6425C47.9941 245.802 51.3533 245.718 54.7049 245.718L64.7673 245.673H65.1473V246.053L65.0941 254.551V254.893H64.7597C63.0649 254.878 61.3625 254.885 59.6753 254.855L54.6137 254.771L44.6349 254.551Z" fill="#EBEBEB"/>
<path d="M44.6349 17.9828L54.7885 17.77L59.7893 17.6864C61.4537 17.6484 63.1029 17.656 64.7673 17.6408L64.4253 17.9828L64.3873 9.47725L64.7673 9.8573L54.7049 9.8117C51.3533 9.8041 47.9941 9.72808 44.6425 9.69008L44.8401 9.47725C44.8249 10.8682 44.7717 12.2668 44.7413 13.6882L44.6349 17.9828ZM44.6349 17.9828L44.5285 13.7718C44.4905 12.3505 44.4449 10.9139 44.4297 9.47725V9.27202H44.6425C47.9941 9.23402 51.3533 9.1504 54.7049 9.1504L64.7673 9.1048H65.1473V9.48485L65.1093 17.9904V18.3325H64.7749C63.0801 18.3173 61.3777 18.3249 59.6905 18.2869L54.6289 18.2033L44.6349 17.9828Z" fill="#EBEBEB"/>
<path d="M33.4103 28.7079L43.5639 28.4951L48.5647 28.4115C50.2291 28.3735 51.8783 28.3811 53.5427 28.3659L53.2007 28.7079L53.1627 20.2023L53.5427 20.5824L43.4727 20.5292C40.1211 20.5292 36.7619 20.4456 33.4103 20.4076L33.6155 20.2023C33.6003 21.5933 33.5471 22.9919 33.5167 24.4133L33.4103 28.7079ZM33.4103 28.7079L33.3039 24.4969C33.2659 23.0755 33.2203 21.6389 33.2051 20.2023V19.9971H33.4179C36.7695 19.9591 40.1287 19.8755 43.4803 19.8755L53.5427 19.8299H53.9227V20.2099L53.8847 28.7155V29.0576H53.5503C51.8555 29.0424 50.1531 29.05 48.4659 29.012L43.4043 28.9284L33.4103 28.7079Z" fill="#EBEBEB"/>
<path d="M326.467 17.9905L336.621 17.7776L341.621 17.694C343.286 17.656 344.935 17.6636 346.599 17.6484L346.257 17.9905L346.219 9.48488L346.599 9.86493L336.537 9.81933C333.185 9.81172 329.826 9.73571 326.475 9.69771L326.68 9.49248C326.665 10.8835 326.611 12.2821 326.581 13.7035L326.467 17.9905ZM326.467 17.9905L326.361 13.7795C326.323 12.3581 326.277 10.9291 326.262 9.48488V9.27965H326.475C329.826 9.24165 333.185 9.15803 336.537 9.15803L346.599 9.11243H346.979V9.49248L346.941 17.9981V18.3401H346.607C344.912 18.3249 343.21 18.3325 341.523 18.2945L336.461 18.2109L326.467 17.9905Z" fill="#EBEBEB"/>
<path d="M217.52 128.244L207.367 128.457L202.366 128.54C200.701 128.578 199.052 128.571 197.388 128.586L197.73 128.244L197.768 136.749L197.388 136.369L207.45 136.415C210.802 136.423 214.161 136.499 217.513 136.537L217.307 136.742C217.323 135.351 217.376 133.952 217.406 132.531L217.52 128.244ZM217.52 128.244L217.627 132.455C217.665 133.876 217.71 135.313 217.725 136.749V136.955H217.513C214.161 136.993 210.802 137.076 207.45 137.076L197.388 137.122H197.008V136.742L197.046 128.236V127.894H197.38C199.075 127.909 200.777 127.902 202.465 127.932L207.526 128.016L217.52 128.244Z" fill="#EBEBEB"/>
<path d="M206.296 117.519L196.15 117.732L191.149 117.815C189.484 117.853 187.835 117.846 186.171 117.861L186.513 117.519L186.551 126.024L186.171 125.644L196.233 125.69C199.585 125.698 202.944 125.774 206.296 125.812L206.09 126.017C206.106 124.626 206.159 123.227 206.189 121.806L206.296 117.519ZM206.296 117.519L206.402 121.73C206.44 123.151 206.486 124.58 206.501 126.024V126.23H206.288C202.936 126.268 199.577 126.351 196.226 126.351L186.163 126.397H185.783V126.017L185.821 117.511V117.169H186.156C187.85 117.184 189.553 117.177 191.24 117.207L196.302 117.291L206.296 117.519Z" fill="#EBEBEB"/>
<path d="M29.1621 321.736C132.203 321.273 247.791 321.265 350.84 321.736C247.799 322.2 132.203 322.2 29.1621 321.736Z" fill="#263238"/>
<path d="M324.542 237.083C321.654 234.256 317.923 230.835 313.515 232.059C309.365 233.207 307.777 237.737 307.032 241.515C306.074 246.38 305.33 251.297 304.554 256.2C303.772 261.148 303.042 266.104 302.328 271.068C301.925 273.865 301.53 276.662 301.134 279.467C300.937 280.866 300.747 282.264 300.549 283.67C300.359 285.046 300.131 286.414 300.055 287.798C300.032 288.239 300.724 288.299 300.823 287.881C301.355 285.548 301.575 283.115 301.925 280.752C302.267 278.365 302.616 275.986 302.966 273.599C303.658 268.863 304.372 264.136 305.086 259.4C305.801 254.665 306.538 249.937 307.29 245.209C307.929 241.203 308.233 236.217 311.79 233.579C313.735 232.128 316.228 232.112 318.432 232.956C320.773 233.845 322.635 235.525 324.466 237.182C324.512 237.22 324.596 237.137 324.542 237.083Z" fill="#263238"/>
<path d="M320.59 234.195C320.59 234.195 314.692 232.074 311.774 236.376C308.863 240.686 312.344 251.639 339.21 257.819C339.21 257.819 338.503 246.091 332.742 233.526C326.989 220.962 316.721 225.72 320.59 234.195Z" fill="#A435F0"/>
<path d="M337.668 256.025C337.296 255.265 336.779 254.558 336.315 253.844C335.867 253.152 335.411 252.46 334.955 251.776C334.613 251.259 334.256 250.75 333.906 250.241C333.929 250.119 333.937 249.99 333.959 249.853C333.99 249.618 334.02 249.39 334.051 249.154C334.119 248.652 334.187 248.151 334.263 247.649C334.339 247.147 334.423 246.646 334.514 246.151C334.613 245.642 334.666 245.042 334.864 244.57C334.894 244.494 334.757 244.456 334.75 244.548C334.719 244.844 334.59 245.148 334.507 245.437C334.446 245.665 334.385 245.885 334.324 246.113C334.195 246.623 334.073 247.132 333.952 247.649C333.845 248.12 333.754 248.599 333.678 249.078C333.64 249.306 333.602 249.534 333.572 249.77C333.093 249.085 332.607 248.409 332.097 247.748C330.669 245.87 329.164 244.061 327.598 242.298C327.606 242.283 327.621 242.267 327.621 242.252C327.758 239.432 327.689 236.635 328.32 233.853C328.335 233.777 328.221 233.739 328.206 233.815C327.621 236.422 327.036 239.158 327.203 241.849C326.641 241.226 326.078 240.603 325.501 239.987C324.193 238.581 322.856 237.197 321.495 235.837C321.442 235.784 321.351 235.86 321.404 235.92C323.669 238.36 325.82 240.899 327.91 243.483C326.276 243.43 324.619 243.544 323 243.666C321.176 243.803 319.367 244.031 317.559 244.282C317.483 244.289 317.505 244.411 317.581 244.403C319.383 244.137 321.199 243.993 323.015 243.917C324.771 243.841 326.511 243.924 328.259 243.917C329.392 245.323 330.509 246.729 331.611 248.158C331.535 248.158 331.451 248.158 331.36 248.151C330.95 248.143 330.539 248.135 330.121 248.143C329.308 248.158 328.487 248.211 327.674 248.287C326.01 248.432 324.345 248.66 322.711 249.032C322.635 249.047 322.658 249.161 322.734 249.154C324.383 248.964 326.04 248.812 327.697 248.751C328.487 248.721 329.278 248.721 330.076 248.721C330.486 248.721 330.897 248.721 331.315 248.721C331.565 248.728 331.786 248.751 331.991 248.66C332.713 249.595 333.435 250.537 334.149 251.48C334.719 252.232 335.282 252.985 335.837 253.753C336.399 254.535 336.908 255.387 337.539 256.116C337.615 256.147 337.699 256.086 337.668 256.025Z" fill="#263238"/>
<path d="M323.159 240.299C322.217 240.147 321.236 240.162 320.286 240.162C319.329 240.162 318.371 240.192 317.413 240.223C317.33 240.223 317.33 240.352 317.421 240.344C318.394 240.276 319.367 240.261 320.339 240.268C321.282 240.283 322.224 240.375 323.159 240.344C323.189 240.344 323.189 240.299 323.159 240.299Z" fill="#263238"/>
<path d="M331.589 242.465C331.703 241.545 331.817 240.625 332.007 239.721C332.022 239.637 331.9 239.607 331.893 239.698C331.756 240.603 331.581 241.5 331.444 242.404C331.376 242.86 331.315 243.309 331.262 243.765C331.209 244.183 331.117 244.631 331.155 245.049C331.163 245.125 331.292 245.141 331.315 245.065C331.421 244.662 331.414 244.206 331.452 243.788C331.49 243.331 331.543 242.898 331.589 242.465Z" fill="#263238"/>
<path d="M329.825 232.295C329.59 233.192 329.354 234.089 329.195 235.001C329.111 235.464 329.043 235.928 328.974 236.392C328.913 236.833 328.837 237.304 328.883 237.752C328.891 237.79 328.944 237.79 328.951 237.76C329.081 237.349 329.103 236.893 329.164 236.468C329.225 236.019 329.293 235.578 329.369 235.13C329.529 234.195 329.696 233.268 329.939 232.34C329.962 232.257 329.848 232.219 329.825 232.295Z" fill="#263238"/>
<path d="M294.842 286.794C294.698 285.099 294.531 283.412 294.348 281.724C293.999 278.38 293.588 275.035 293.14 271.699C292.692 268.369 292.266 265.04 291.734 261.726C291.491 260.206 291.232 258.648 290.708 257.196C290.252 255.949 289.507 254.817 288.2 254.368C285.038 253.274 282.903 256.557 281.634 258.876C281.596 258.944 281.694 258.997 281.74 258.936C282.508 257.842 284.62 254.756 287.014 254.9C288.626 254.999 289.918 256.139 290.693 260.16C292.623 270.186 294.364 290.534 294.569 291.864C294.675 292.571 295.177 292.541 295.177 291.781C295.177 290.116 294.987 288.451 294.842 286.794Z" fill="#263238"/>
<path d="M282.477 257.629C282.477 257.629 285.236 247.869 279.133 252.749C268.965 260.867 268.607 278.54 268.607 278.54C268.607 278.54 286.68 268.043 288.93 261.118C292.274 250.796 282.477 257.629 282.477 257.629Z" fill="#A435F0"/>
<path d="M285.897 262.418C284.476 262.707 283.039 262.897 281.611 263.102C280.934 263.201 280.258 263.292 279.574 263.391C279.118 263.451 278.654 263.497 278.191 263.55C279.536 261.696 280.896 259.849 282.188 257.956C282.241 257.88 282.127 257.804 282.067 257.865C280.995 258.959 279.999 260.137 279.049 261.354C278.783 260.601 278.517 259.841 278.251 259.088C277.947 258.214 277.613 257.348 277.393 256.443C277.377 256.367 277.256 256.405 277.279 256.481C277.522 257.378 277.697 258.29 277.94 259.187C278.168 260.054 278.434 260.905 278.738 261.749C278.077 262.608 277.438 263.489 276.823 264.379C276.511 263.497 276.123 262.646 275.85 261.749C275.827 261.673 275.713 261.711 275.736 261.787C276.063 262.775 276.237 263.809 276.541 264.804C276.123 265.413 275.713 266.013 275.318 266.629C274.588 267.754 273.897 268.909 273.228 270.064C273.121 270.125 273.053 270.209 273.068 270.338C271.928 272.314 270.841 274.321 269.77 276.343C269.732 276.411 269.838 276.472 269.876 276.404C270.948 274.405 272.141 272.459 273.387 270.551C273.395 270.551 273.395 270.551 273.403 270.551C273.532 270.475 273.828 270.467 273.995 270.437C274.201 270.391 274.413 270.346 274.619 270.3C275.082 270.201 275.546 270.08 276.009 269.966C276.929 269.738 277.833 269.525 278.761 269.358C278.837 269.342 278.799 269.228 278.723 269.243C277.628 269.449 276.534 269.578 275.424 269.707C274.9 269.768 274.383 269.836 273.866 269.92C273.843 269.92 273.813 269.928 273.79 269.928C274.444 268.939 275.097 267.959 275.766 266.994C276.42 266.043 277.096 265.101 277.773 264.158C278.396 264.067 279.019 263.908 279.642 263.786C280.341 263.649 281.041 263.512 281.74 263.375C283.138 263.102 284.529 262.783 285.943 262.555C286.011 262.517 285.973 262.403 285.897 262.418Z" fill="#263238"/>
<path d="M275.036 263.375C274.953 263.117 274.877 262.859 274.793 262.6C274.618 262.06 274.489 261.521 274.375 260.966C274.36 260.89 274.246 260.928 274.261 261.004C274.383 261.551 274.504 262.106 274.634 262.653C274.755 263.193 274.892 263.763 275.105 264.272C275.158 264.402 275.356 264.348 275.318 264.212C275.234 263.93 275.128 263.657 275.036 263.375Z" fill="#263238"/>
<path d="M287.743 260.16C286.922 260.282 286.086 260.343 285.258 260.411C284.422 260.487 283.601 260.601 282.772 260.723C282.727 260.73 282.727 260.799 282.772 260.799C283.608 260.738 284.429 260.677 285.258 260.571C286.086 260.464 286.907 260.343 287.743 260.282C287.826 260.274 287.819 260.145 287.743 260.16Z" fill="#263238"/>
<path d="M308.144 274.443C307.824 267.26 307.368 260.084 306.646 252.932C306.289 249.367 305.886 245.809 305.385 242.26C304.891 238.786 304.29 235.312 303.325 231.93C302.588 229.345 301.615 226.746 299.89 224.648C298.188 222.573 295.672 221.281 292.944 221.615C289.797 222.003 287.266 223.987 285.078 226.138C282.623 228.555 280.373 231.185 278.093 233.769C277.516 234.423 276.946 235.077 276.383 235.738C276.33 235.799 276.421 235.882 276.474 235.822C278.701 233.268 281.012 230.782 283.428 228.411C285.663 226.214 287.966 223.82 291.059 222.915C292.495 222.497 294.046 222.375 295.49 222.809C296.66 223.158 297.678 223.85 298.522 224.724C300.262 226.533 301.243 228.988 301.942 231.367C303.872 237.973 304.564 244.897 305.286 251.715C306.016 258.648 306.51 265.587 306.852 272.55C307.201 279.543 307.475 286.551 308.151 293.521C308.235 294.38 308.349 295.239 308.455 296.098C308.531 296.676 309.428 296.676 309.375 296.075C308.797 288.869 308.463 281.664 308.144 274.443Z" fill="#263238"/>
<path d="M284.674 226.913C284.674 226.913 288.778 219.32 283.929 216.887C279.08 214.455 262.862 232.561 258.119 259.043C258.119 259.043 284.316 247.451 293.216 235.898C302.116 224.344 292.03 221.798 284.674 226.913Z" fill="#A435F0"/>
<path d="M288.526 233.093C285.585 233.1 282.644 232.872 279.702 232.888C280.257 232.257 280.804 231.618 281.359 230.995C282.127 230.128 283.008 229.285 283.662 228.319C283.7 228.259 283.616 228.175 283.556 228.221C282.735 228.859 282.036 229.703 281.329 230.455C280.592 231.238 279.854 232.029 279.125 232.819C278 234.035 276.898 235.274 275.796 236.513C275.796 236.392 275.788 236.27 275.788 236.156C275.788 235.639 275.788 235.122 275.788 234.605C275.796 233.61 275.811 232.606 275.819 231.611C275.842 229.589 275.834 227.552 275.971 225.53C275.978 225.454 275.857 225.454 275.849 225.53C275.705 227.559 275.5 229.581 275.401 231.618C275.355 232.614 275.325 233.617 275.317 234.613C275.31 235.13 275.302 235.647 275.31 236.164C275.31 236.445 275.302 236.741 275.325 237.03C275.15 237.228 274.975 237.41 274.808 237.608C272.46 240.291 270.225 243.073 268.052 245.901C268.052 245.749 268.029 245.581 268.014 245.429C267.983 245.118 267.945 244.806 267.915 244.494C267.839 243.818 267.748 243.149 267.641 242.473C267.55 241.842 267.444 241.211 267.337 240.58C267.216 239.873 267.048 239.158 266.988 238.436C266.98 238.353 266.851 238.368 266.866 238.459C267.018 239.158 267.048 239.903 267.109 240.618C267.17 241.264 267.231 241.91 267.292 242.564C267.352 243.21 267.406 243.864 267.474 244.51C267.504 244.821 267.535 245.133 267.565 245.445C267.58 245.604 267.603 245.756 267.618 245.908C267.649 246.113 267.679 246.144 267.748 246.281C267.375 246.767 266.995 247.254 266.63 247.748C265.148 249.716 263.689 251.7 262.23 253.692C262.184 253.753 262.268 253.836 262.321 253.775C263.704 251.974 265.126 250.203 266.562 248.455C267.641 248.5 268.743 248.424 269.815 248.401C270.955 248.386 272.087 248.379 273.227 248.371C273.303 248.371 273.303 248.249 273.227 248.249C272.087 248.272 270.955 248.287 269.815 248.287C268.781 248.295 267.725 248.242 266.684 248.295C267.953 246.752 269.23 245.224 270.514 243.696C270.985 243.141 271.456 242.587 271.92 242.032C272.346 242.123 272.802 242.077 273.235 242.077C273.752 242.077 274.268 242.077 274.785 242.077C275.75 242.077 276.723 242.054 277.688 242.039C279.687 242.009 281.686 241.94 283.692 241.94C283.768 241.94 283.768 241.819 283.692 241.819C281.694 241.796 279.687 241.705 277.688 241.659C276.723 241.636 275.75 241.606 274.785 241.591C274.268 241.583 273.752 241.576 273.235 241.576C272.938 241.576 272.634 241.553 272.338 241.56C273.44 240.253 274.534 238.953 275.636 237.646C275.667 237.631 275.682 237.608 275.697 237.577C276.769 236.308 277.848 235.046 278.927 233.785C279.079 233.61 279.224 233.442 279.376 233.268C282.431 233.366 285.478 233.161 288.526 233.222C288.61 233.214 288.61 233.085 288.526 233.093Z" fill="#263238"/>
<path d="M287.022 238.3C286.786 238.3 286.543 238.307 286.307 238.307C286.239 238.307 286.239 238.414 286.307 238.414C286.543 238.414 286.786 238.421 287.022 238.421C287.105 238.421 287.098 238.292 287.022 238.3Z" fill="#263238"/>
<path d="M285.435 238.307C284.492 238.292 283.55 238.277 282.607 238.246C282.136 238.231 281.665 238.216 281.194 238.201C280.776 238.186 280.289 238.125 279.879 238.216C279.833 238.224 279.841 238.292 279.879 238.307C280.289 238.429 280.776 238.391 281.201 238.398C281.673 238.406 282.144 238.414 282.615 238.421C283.557 238.429 284.5 238.436 285.442 238.429C285.518 238.429 285.518 238.307 285.435 238.307Z" fill="#263238"/>
<path d="M277.202 247.147C275.287 246.881 273.349 246.608 271.411 246.623C271.38 246.623 271.388 246.661 271.411 246.668C273.333 246.851 275.264 246.957 277.171 247.269C277.247 247.276 277.278 247.162 277.202 247.147Z" fill="#263238"/>
<path d="M269.32 238.718C269.297 238.55 269.282 238.383 269.259 238.216C269.206 237.836 269.153 237.456 269.092 237.083C268.978 236.361 268.856 235.647 268.72 234.932C268.704 234.864 268.59 234.887 268.598 234.955C268.689 235.692 268.765 236.437 268.834 237.182C268.864 237.547 268.894 237.912 268.925 238.277C268.955 238.604 268.925 239.014 269.069 239.318C269.122 239.432 269.297 239.387 269.32 239.28C269.381 239.082 269.343 238.9 269.32 238.718Z" fill="#263238"/>
<path d="M307.883 217.161C306.949 215.413 305.755 213.11 303.415 213.254C301.484 213.376 300.61 215.344 300.2 216.979C298.923 222.018 298.832 227.339 298.589 232.508C298.064 243.43 297.593 254.361 297.525 265.299C297.502 268.331 297.517 271.364 297.547 274.389C297.578 277.483 297.57 280.592 297.76 283.678C297.775 283.967 298.216 283.959 298.216 283.67C298.231 281.025 298.14 278.38 298.133 275.735C298.125 273.15 298.14 270.574 298.186 267.989C298.269 262.76 298.414 257.538 298.604 252.316C298.794 247.124 299.022 241.933 299.242 236.741C299.349 234.149 299.463 231.55 299.577 228.958C299.691 226.442 299.797 223.926 300.086 221.425C300.245 220.027 300.451 218.628 300.747 217.245C300.952 216.264 301.256 215.2 301.955 214.44C302.883 213.444 304.273 213.513 305.368 214.189C306.5 214.888 307.192 216.059 307.792 217.214C307.815 217.298 307.921 217.229 307.883 217.161Z" fill="#263238"/>
<path d="M307.245 216.333C307.245 216.333 305.322 209.537 309.578 212.935C316.662 218.59 316.912 230.896 316.912 230.896C316.912 230.896 304.319 223.584 302.754 218.757C300.42 211.574 307.245 216.333 307.245 216.333Z" fill="#A435F0"/>
<path d="M314.26 225.849C314.146 225.659 314.025 225.477 313.903 225.294C313.934 225.104 313.903 224.899 313.903 224.717C313.903 224.428 313.896 224.131 313.903 223.842C313.918 223.265 313.941 222.695 313.964 222.117C313.964 222.041 313.85 222.041 313.842 222.117C313.812 222.679 313.789 223.242 313.774 223.804C313.766 224.086 313.751 224.367 313.744 224.648C313.744 224.755 313.728 224.884 313.721 225.013C313.227 224.245 312.718 223.485 312.193 222.74C312.041 222.52 311.882 222.315 311.73 222.102C311.616 221.372 311.684 220.612 311.692 219.882C311.699 219.092 311.714 218.301 311.737 217.511C311.737 217.435 311.616 217.435 311.616 217.511C311.593 218.332 311.555 219.153 311.509 219.973C311.479 220.551 311.426 221.144 311.464 221.729C310.248 220.072 308.956 218.484 307.648 216.895C307.603 216.842 307.512 216.918 307.557 216.971C308.363 217.997 309.138 219.046 309.898 220.103C308.416 219.761 306.911 219.555 305.406 219.343C305.33 219.335 305.3 219.449 305.376 219.457C306.972 219.7 308.538 220.095 310.103 220.445C310.118 220.445 310.126 220.437 310.134 220.437C310.734 221.288 311.334 222.14 311.927 222.999C312.17 223.348 312.406 223.698 312.642 224.048C312.619 224.048 312.596 224.04 312.573 224.04C312.414 224.017 312.246 223.994 312.087 223.972C311.737 223.934 311.388 223.903 311.038 223.873C310.316 223.812 309.586 223.774 308.857 223.736C308.781 223.728 308.781 223.858 308.857 223.858C309.571 223.873 310.286 223.926 310.992 224.002C311.365 224.04 311.745 224.093 312.117 224.139C312.284 224.162 312.444 224.177 312.611 224.2C312.657 224.207 312.71 224.215 312.756 224.222C313.158 224.815 313.561 225.408 313.964 226.009C314.678 227.058 315.309 228.183 316.069 229.201C316.115 229.262 316.198 229.209 316.168 229.14C315.659 228.008 314.922 226.921 314.26 225.849Z" fill="#263238"/>
<path d="M311.129 218.172C311.129 217.906 311.137 217.64 311.137 217.382C311.137 216.827 311.129 216.264 311.205 215.717C311.22 215.626 311.084 215.618 311.084 215.702C311.084 216.249 311.023 216.804 311 217.351C310.985 217.625 310.985 217.898 310.985 218.18C310.985 218.309 310.985 218.43 310.985 218.56C310.985 218.689 310.97 218.833 311.015 218.955C311.038 219.008 311.106 219.001 311.122 218.955C311.16 218.841 311.137 218.712 311.137 218.59C311.129 218.446 311.129 218.309 311.129 218.172Z" fill="#263238"/>
<path d="M309.57 220.984C309.098 220.908 308.62 220.878 308.148 220.84C307.632 220.794 307.107 220.749 306.59 220.68C306.507 220.673 306.492 220.794 306.575 220.802C307.571 220.863 308.559 221.045 309.554 221.076C309.615 221.083 309.623 221 309.57 220.984Z" fill="#263238"/>
<path d="M313.524 221.03C313.562 221.083 313.539 221.228 313.539 221.288V221.509C313.539 221.668 313.539 221.828 313.539 221.988C313.539 222.147 313.539 222.307 313.532 222.467C313.532 222.596 313.494 222.771 313.554 222.885C313.562 222.9 313.592 222.9 313.6 222.885C313.63 222.824 313.623 222.755 313.623 222.687C313.623 222.611 313.623 222.543 313.623 222.467C313.623 222.307 313.623 222.147 313.623 221.988C313.623 221.828 313.623 221.668 313.623 221.509V221.288C313.623 221.22 313.6 221.083 313.638 221.022C313.706 220.916 313.448 220.916 313.524 221.03Z" fill="#263238"/>
<path d="M308.172 253.433C305.528 251.442 303.149 248.591 299.584 248.447C296.643 248.333 294.584 250.545 293.406 253.008C292.782 254.307 292.357 255.683 291.962 257.067C291.43 258.929 290.928 260.799 290.464 262.676C289.545 266.37 288.747 270.095 288.108 273.85C287.751 275.94 287.417 278.038 287.151 280.143C286.885 282.264 286.535 284.446 286.535 286.589C286.535 286.962 287.12 287.03 287.189 286.665C287.546 284.902 287.698 283.085 287.956 281.306C288.215 279.52 288.488 277.726 288.792 275.948C289.4 272.383 290.1 268.825 290.898 265.299C291.658 261.969 292.402 258.587 293.482 255.341C294.249 253.015 295.488 250.302 297.996 249.466C301.819 248.196 305.284 251.427 308.081 253.524C308.15 253.562 308.233 253.479 308.172 253.433Z" fill="#263238"/>
<path d="M305.435 251.533C305.435 251.533 302.996 244.563 306.522 243.195C311.812 241.15 325.659 256.747 322.946 280.645C322.946 280.645 312.245 274.754 304.349 268.119C296.452 261.49 294.423 252.825 297.904 250.591C301.385 248.348 305.435 251.533 305.435 251.533Z" fill="#A435F0"/>
<path d="M321.352 275.522C321.04 274.678 320.501 273.895 320.068 273.112C319.612 272.292 319.156 271.478 318.684 270.672C317.765 269.099 316.853 267.526 315.91 265.96C315.758 265.709 315.599 265.458 315.447 265.207C315.47 265.116 315.485 265.017 315.508 264.926C315.561 264.698 315.614 264.462 315.667 264.234C315.781 263.718 315.872 263.193 315.971 262.669C316.161 261.642 316.344 260.609 316.617 259.605C316.64 259.529 316.511 259.507 316.496 259.583C316.275 260.601 315.956 261.612 315.652 262.608C315.5 263.102 315.348 263.588 315.211 264.09C315.166 264.257 315.12 264.432 315.074 264.599C313.934 262.737 312.779 260.875 311.533 259.088C311.639 258.853 311.632 258.587 311.654 258.321C311.692 257.971 311.73 257.621 311.776 257.272C311.867 256.489 311.958 255.698 312.072 254.915C312.3 253.372 312.528 251.845 312.908 250.34C312.931 250.264 312.81 250.241 312.787 250.317C312.407 251.822 311.989 253.327 311.708 254.855C311.571 255.6 311.434 256.352 311.335 257.112C311.282 257.492 311.244 257.872 311.206 258.245C311.191 258.359 311.176 258.473 311.16 258.587C310.773 258.047 310.393 257.5 309.99 256.975C308.766 255.372 307.505 253.798 306.22 252.232C306.175 252.172 306.068 252.24 306.122 252.301C308.364 255.045 310.264 258.085 312.141 261.088C312.49 261.65 312.832 262.213 313.182 262.775C313.068 262.76 312.946 262.745 312.84 262.729C312.392 262.676 311.943 262.646 311.487 262.6C310.59 262.517 309.686 262.441 308.782 262.365C306.98 262.22 305.172 262.114 303.37 261.916C303.294 261.908 303.272 262.03 303.348 262.038C305.172 262.243 306.98 262.539 308.797 262.798C309.686 262.927 310.583 263.041 311.48 263.155C312.095 263.231 312.87 263.421 313.539 263.368C314.246 264.516 314.96 265.663 315.667 266.819C315.508 266.796 315.348 266.804 315.188 266.804C314.884 266.796 314.588 266.804 314.284 266.804C313.729 266.804 313.167 266.804 312.612 266.804C311.449 266.804 310.294 266.826 309.131 266.826C309.055 266.826 309.063 266.948 309.146 266.948C310.324 266.963 311.495 267.024 312.673 267.085C313.228 267.115 313.79 267.146 314.345 267.184C314.626 267.206 314.9 267.229 315.181 267.244C315.424 267.26 315.682 267.305 315.918 267.214C316.518 268.195 317.126 269.167 317.727 270.148C318.282 271.053 318.836 271.949 319.414 272.846C319.992 273.743 320.524 274.777 321.23 275.568C321.284 275.636 321.382 275.598 321.352 275.522Z" fill="#263238"/>
<path d="M316.251 256.2C316.168 256.968 315.963 257.728 315.773 258.473C315.575 259.248 315.347 260.016 315.096 260.776C315.058 260.882 315.203 260.928 315.241 260.822C315.476 260.069 315.689 259.309 315.879 258.541C316.061 257.773 316.183 256.991 316.373 256.223C316.388 256.147 316.259 256.124 316.251 256.2Z" fill="#263238"/>
<path d="M308.392 260.867C308.225 260.7 308.035 260.685 307.807 260.647C307.473 260.601 307.131 260.555 306.796 260.51C306.173 260.426 305.542 260.358 304.911 260.282C303.604 260.13 302.305 260.001 300.997 259.841C300.921 259.833 300.899 259.947 300.975 259.963C302.206 260.115 303.429 260.297 304.653 260.457C305.253 260.533 305.854 260.624 306.462 260.692C306.751 260.723 307.039 260.761 307.328 260.791C307.647 260.829 308.027 260.821 308.324 260.958C308.392 260.989 308.438 260.913 308.392 260.867Z" fill="#263238"/>
<path d="M316.237 271.379C315.621 271.326 314.998 271.311 314.383 271.288C314.071 271.281 313.759 271.265 313.448 271.258C313.296 271.25 313.151 271.25 312.999 271.243C312.809 271.235 312.597 271.258 312.414 271.212C312.331 271.189 312.323 271.349 312.407 271.334C312.581 271.303 312.779 271.341 312.954 271.349C313.113 271.357 313.281 271.372 313.44 271.379C313.752 271.395 314.063 271.417 314.375 271.433C314.991 271.471 315.614 271.509 316.229 271.509C316.305 271.516 316.313 271.387 316.237 271.379Z" fill="#263238"/>
<path d="M320.005 268.704C320.073 268.354 320.142 268.005 320.21 267.655C320.339 266.963 320.461 266.279 320.59 265.587C320.605 265.511 320.491 265.489 320.468 265.565C320.316 266.233 320.164 266.91 320.012 267.579C319.936 267.913 319.86 268.248 319.792 268.59C319.762 268.742 319.731 268.901 319.693 269.053C319.663 269.213 319.61 269.38 319.64 269.548C319.648 269.601 319.731 269.646 319.777 269.593C319.936 269.342 319.952 268.993 320.005 268.704Z" fill="#263238"/>
<path d="M283.783 283.914L284.528 292.389L287.059 320.992H309.456L312.618 292.389L313.552 283.914H283.783Z" fill="#D35A24"/>
<path d="M283.783 283.914L284.528 292.389H312.618L313.552 283.914H283.783Z" fill="#B14211"/>
<path d="M281.564 288.476H315.771V281.605H281.564V288.476Z" fill="#F6921E"/>
<path d="M162.67 235.738C162.67 223.569 164.653 212.638 168.628 202.955C172.595 193.271 180.796 184.826 193.214 177.62C196.938 175.386 201.528 172.839 206.993 169.981C212.45 167.131 217.792 163.71 223.014 159.735C228.227 155.767 232.635 151.108 236.238 145.764C239.832 140.428 241.641 134.279 241.641 127.324C241.641 122.11 240.646 117.519 238.662 113.543C236.671 109.576 234.064 106.224 230.842 103.487C227.612 100.758 223.819 98.7061 219.48 97.3379C215.132 95.9773 210.724 95.2856 206.256 95.2856C200.791 95.2856 195.828 96.2206 191.36 98.0828C186.891 99.9451 182.848 102.309 179.253 105.159C175.65 108.017 172.42 111.248 169.57 114.843C166.713 118.446 164.288 121.867 162.305 125.089H156.696L129.898 102.735C133.121 95.0424 137.407 88.209 142.75 82.2422C148.085 76.283 154.165 71.2511 161.005 67.1541C167.83 63.0571 175.217 59.9559 183.167 57.8428C191.109 55.7373 199.309 54.6732 207.753 54.6732C217.184 54.6732 226.502 56.0413 235.69 58.7701C244.871 61.5065 253.132 65.8467 260.459 71.806C267.778 77.7652 273.744 85.4042 278.334 94.7155C282.924 104.027 285.227 115.147 285.227 128.061C285.227 136.012 284.292 143.028 282.43 149.109C280.568 155.197 277.893 160.723 274.42 165.687C270.939 170.658 266.843 175.127 262.131 179.095C257.411 183.07 252.076 186.916 246.11 190.641C241.14 193.621 236.177 196.479 231.214 199.207C226.244 201.944 221.714 204.984 217.618 208.336C213.521 211.688 210.17 215.542 207.563 219.882C204.956 224.23 203.649 229.513 203.649 235.715H162.67V235.738ZM163.414 322.542V271.129H204.758V322.542H163.414Z" fill="#8607DD"/>
<g opacity="0.2">
<path d="M162.67 235.738C162.67 223.569 164.653 212.638 168.628 202.955C172.595 193.271 180.796 184.826 193.214 177.62C196.938 175.386 201.528 172.839 206.993 169.981C212.45 167.131 217.792 163.71 223.014 159.735C228.227 155.767 232.635 151.108 236.238 145.764C239.832 140.428 241.641 134.279 241.641 127.324C241.641 122.11 240.646 117.519 238.662 113.543C236.671 109.576 234.064 106.224 230.842 103.487C227.612 100.758 223.819 98.7061 219.48 97.3379C215.132 95.9773 210.724 95.2856 206.256 95.2856C200.791 95.2856 195.828 96.2206 191.36 98.0828C186.891 99.9451 182.848 102.309 179.253 105.159C175.65 108.017 172.42 111.248 169.57 114.843C166.713 118.446 164.288 121.867 162.305 125.089H156.696L129.898 102.735C133.121 95.0424 137.407 88.209 142.75 82.2422C148.085 76.283 154.165 71.2511 161.005 67.1541C167.83 63.0571 175.217 59.9559 183.167 57.8428C191.109 55.7373 199.309 54.6732 207.753 54.6732C217.184 54.6732 226.502 56.0413 235.69 58.7701C244.871 61.5065 253.132 65.8467 260.459 71.806C267.778 77.7652 273.744 85.4042 278.334 94.7155C282.924 104.027 285.227 115.147 285.227 128.061C285.227 136.012 284.292 143.028 282.43 149.109C280.568 155.197 277.893 160.723 274.42 165.687C270.939 170.658 266.843 175.127 262.131 179.095C257.411 183.07 252.076 186.916 246.11 190.641C241.14 193.621 236.177 196.479 231.214 199.207C226.244 201.944 221.714 204.984 217.618 208.336C213.521 211.688 210.17 215.542 207.563 219.882C204.956 224.23 203.649 229.513 203.649 235.715H162.67V235.738ZM163.414 322.542V271.129H204.758V322.542H163.414Z" fill="black"/>
</g>
<path d="M157.06 235.738C157.06 223.569 159.044 212.638 163.019 202.955C166.986 193.271 175.186 184.826 187.605 177.62C191.329 175.386 195.919 172.839 201.383 169.981C206.84 167.131 212.183 163.71 217.404 159.735C222.618 155.767 227.026 151.108 230.628 145.764C234.223 140.428 236.032 134.279 236.032 127.324C236.032 122.11 235.036 117.519 233.053 113.543C231.061 109.576 228.455 106.224 225.232 103.487C222.002 100.758 218.21 98.7061 213.87 97.3379C209.523 95.9773 205.115 95.2856 200.646 95.2856C195.182 95.2856 190.219 96.2206 185.75 98.0828C181.281 99.9451 177.238 102.309 173.643 105.159C170.041 108.017 166.811 111.248 163.961 114.843C161.103 118.446 158.679 121.867 156.695 125.089L124.289 102.735C127.511 95.0424 131.798 88.209 137.141 82.2422C142.476 76.283 148.556 71.2511 155.396 67.1541C162.221 63.0571 169.608 59.9559 177.557 57.8428C185.499 55.7373 193.7 54.6732 202.143 54.6732C211.575 54.6732 220.893 56.0413 230.081 58.7701C239.262 61.5065 247.523 65.8467 254.849 71.806C262.168 77.7652 268.134 85.4042 272.725 94.7155C277.315 104.027 279.618 115.147 279.618 128.061C279.618 136.012 278.683 143.028 276.821 149.109C274.959 155.197 272.284 160.723 268.811 165.687C265.33 170.658 261.233 175.127 256.521 179.095C251.802 183.07 246.467 186.916 240.501 190.641C235.53 193.621 230.567 196.479 225.605 199.207C220.634 201.944 216.105 204.984 212.008 208.336C207.912 211.688 204.56 215.542 201.953 219.882C199.347 224.23 198.039 229.513 198.039 235.715H157.06V235.738ZM157.805 322.542V271.129H199.149V322.542H157.805Z" fill="#A435F0"/>
<path d="M140.025 318.954C138.407 319.479 92.2518 318.878 90.5114 317.738C89.8426 317.32 89.5386 310.586 89.4018 302.437C89.4018 302.354 89.4018 302.27 89.4018 302.179C89.3714 300.499 89.3486 298.774 89.3486 297.018C89.3486 296.775 89.3486 296.539 89.341 296.296C89.2726 284.544 89.4626 272.345 89.4626 272.345L120.341 272.656L119.414 296.379L119.376 297.322L119.186 302.232L119.171 302.734C119.171 302.734 136.735 310.867 138.521 312.319C140.284 313.778 141.644 318.438 140.025 318.954Z" fill="#AD6359"/>
<path d="M140.026 318.954C138.407 319.479 92.2526 318.878 90.5122 317.738C89.8434 317.32 89.5394 310.586 89.4026 302.437C89.4026 302.354 89.4026 302.27 89.4026 302.179C89.3722 300.499 89.3494 298.774 89.3494 297.018C89.3494 296.775 89.3494 296.539 89.3418 296.296L119.407 296.379L119.369 297.322L119.179 302.232L119.164 302.734C119.164 302.734 136.728 310.867 138.514 312.319C140.285 313.778 141.645 318.438 140.026 318.954Z" fill="#EBEBEB"/>
<path d="M140.026 318.954C139.022 319.281 121.147 319.175 107.14 318.78C98.4003 318.536 91.1727 318.179 90.5039 317.738C89.8427 317.32 89.5387 310.776 89.4019 302.779C89.4019 302.665 89.3943 302.551 89.3943 302.437C89.3943 302.354 89.3943 302.263 89.3867 302.179L119.171 302.232L119.156 302.741C119.156 302.741 136.72 310.867 138.506 312.326C140.284 313.786 141.644 318.438 140.026 318.954Z" fill="#A435F0"/>
<path d="M139.532 317.153C131.757 316.864 100.354 316.416 92.6472 316.72C92.5864 316.72 92.5864 316.765 92.6472 316.765C100.354 317.221 131.749 317.411 139.532 317.275C139.691 317.282 139.691 317.161 139.532 317.153Z" fill="#1F1D0D"/>
<path d="M122.492 302.361C119.437 301.753 115.69 302.171 113.319 304.322C113.228 304.406 113.35 304.535 113.448 304.505C116.481 303.593 119.308 303.015 122.477 302.749C122.705 302.734 122.713 302.407 122.492 302.361Z" fill="#263238"/>
<path d="M124.688 303.722C121.633 303.114 117.886 303.532 115.515 305.683C115.423 305.767 115.545 305.896 115.644 305.865C118.676 304.953 121.503 304.376 124.673 304.11C124.893 304.094 124.908 303.768 124.688 303.722Z" fill="#1F1D0D"/>
<path d="M126.877 305.083C123.822 304.474 120.075 304.892 117.704 307.044C117.613 307.127 117.734 307.256 117.833 307.226C120.866 306.314 123.693 305.736 126.862 305.47C127.09 305.455 127.098 305.128 126.877 305.083Z" fill="#1F1D0D"/>
<path d="M126.566 295.733C125.388 294.061 123.131 294.775 121.839 295.832C119.749 297.542 117.902 300.241 117.035 302.787C117.013 302.848 117.058 302.886 117.104 302.901C117.111 303.137 117.317 303.38 117.583 303.289C120.121 302.384 122.948 301.73 125.137 300.081C126.414 299.116 127.683 297.322 126.566 295.733ZM121.147 301.13C119.908 301.601 118.654 302.019 117.431 302.536C118.373 301.183 119.247 299.792 120.326 298.538C120.843 297.938 121.383 297.329 121.975 296.805C122.895 295.992 126.528 294.274 125.943 297.626C125.623 299.473 122.629 300.567 121.147 301.13Z" fill="#1F1D0D"/>
<path d="M109.261 301.89C111.769 303 114.673 302.985 117.355 303.273C117.637 303.304 117.773 303.015 117.728 302.787C117.773 302.764 117.804 302.719 117.773 302.665C116.345 300.385 113.928 298.188 111.496 297.003C109.999 296.273 107.643 296.09 106.875 297.991C106.153 299.792 107.795 301.244 109.261 301.89ZM107.909 299.686C106.571 296.554 110.5 297.39 111.579 297.976C112.279 298.348 112.94 298.819 113.578 299.283C114.916 300.256 116.086 301.411 117.317 302.506C116.01 302.278 114.695 302.171 113.381 301.989C111.815 301.791 108.646 301.411 107.909 299.686Z" fill="#1F1D0D"/>
<path d="M107.149 318.772C98.4086 318.529 91.181 318.172 90.5122 317.731C89.851 317.313 89.547 310.768 89.4102 302.772C92.9974 305.979 101.905 313.923 107.149 318.772Z" fill="#29281E"/>
<path d="M79.9844 139.379C79.9844 139.379 86.9156 217.381 88.0404 223.333C88.2988 224.686 88.466 232.059 88.5724 241.538C88.8156 262.212 88.6712 299.511 88.6712 299.511H121.207C121.207 299.511 120.242 234.894 118.798 223.006C117.354 211.111 108.15 139.379 108.15 139.379H79.9844Z" fill="#29281E"/>
<path d="M119.733 293.841C114.656 293.734 116.116 293.696 111.039 293.643C108.554 293.62 92.2288 293.476 89.9032 293.863C89.85 293.871 89.85 293.955 89.9032 293.97C92.2288 294.357 108.554 294.213 111.039 294.19C116.116 294.145 114.656 294.099 119.733 293.993C119.832 293.985 119.832 293.841 119.733 293.841Z" fill="#1F1D0D"/>
<path d="M94.8514 256.907C94.8134 252.187 94.783 247.466 94.745 242.746C94.7146 238.178 94.7146 233.602 94.5018 229.034C94.061 219.783 92.1838 210.692 90.8538 201.548C89.5162 192.404 88.4066 183.222 87.3958 174.033C86.2634 163.726 85.2678 153.396 84.2038 143.081C84.1962 143.013 84.0898 143.013 84.0898 143.081C85.625 161.498 87.335 179.916 89.881 198.227C90.5118 202.78 91.211 207.325 91.9634 211.863C92.7234 216.454 93.4758 221.053 93.8406 225.697C94.1978 230.242 94.251 234.803 94.2966 239.364C94.3422 244.084 94.3878 248.797 94.441 253.517C94.5398 263.991 94.6462 280.121 94.745 290.595C94.745 290.8 95.0642 290.792 95.0566 290.587C94.9958 281.246 94.9198 266.249 94.8514 256.907Z" fill="#1F1D0D"/>
<path d="M73.123 139.379C73.123 139.379 86.9094 217.381 88.0418 223.333C88.3002 224.686 88.4674 232.059 88.5738 241.538L88.5814 241.568L104.085 139.379H73.123Z" fill="#1F1D0D"/>
<path d="M102.244 321.706C100.595 322.109 54.5925 318.248 52.9357 316.986C52.2973 316.514 52.4721 309.78 52.9129 301.647C52.9205 301.563 52.9205 301.48 52.9281 301.388C53.0193 299.716 53.1181 297.983 53.2397 296.242C53.2549 295.999 53.2701 295.764 53.2853 295.52C54.0529 283.792 55.1017 271.638 55.1017 271.638L85.8817 274.131L83.2749 297.732L83.1761 298.667L82.6441 303.555L82.5909 304.056C82.5909 304.056 99.5389 313.413 101.211 314.994C102.868 316.56 103.894 321.303 102.244 321.706Z" fill="#AD6359"/>
<path d="M102.244 321.706C100.595 322.109 54.5925 318.248 52.9357 316.986C52.2973 316.514 52.4721 309.78 52.9129 301.647C52.9205 301.563 52.9205 301.48 52.9281 301.388C53.0193 299.716 53.1181 297.983 53.2397 296.242C53.2549 295.999 53.2701 295.764 53.2853 295.52L83.2749 297.732L83.1761 298.667L82.6441 303.555L82.5909 304.056C82.5909 304.056 99.5389 313.413 101.211 314.994C102.868 316.56 103.894 321.303 102.244 321.706Z" fill="#EBEBEB"/>
<path d="M102.244 321.706C100.595 322.109 54.5925 318.248 52.9357 316.986C52.2973 316.514 52.4721 309.78 52.9129 301.647C52.9205 301.563 52.9205 301.48 52.9281 301.388L82.6289 303.555L82.5757 304.056C82.5757 304.056 99.5237 313.413 101.196 314.994C102.868 316.56 103.894 321.303 102.244 321.706Z" fill="#A435F0"/>
<path d="M101.874 319.874C94.1368 319.03 62.8476 316.362 55.1336 316.119C55.0728 316.119 55.0652 316.157 55.126 316.165C62.7792 317.168 94.0836 319.578 101.858 319.996C102.026 320.011 102.041 319.897 101.874 319.874Z" fill="#1F1D0D"/>
<path d="M85.9287 303.912C82.9267 303.083 79.1571 303.243 76.6415 305.219C76.5427 305.295 76.6567 305.432 76.7555 305.409C79.8487 304.71 82.7063 304.338 85.8831 304.292C86.1111 304.3 86.1491 303.973 85.9287 303.912Z" fill="#263238"/>
<path d="M88.0244 305.425C85.0224 304.596 81.2528 304.756 78.7372 306.732C78.6384 306.808 78.7524 306.945 78.8512 306.922C81.9444 306.223 84.802 305.85 87.9788 305.812C88.1992 305.812 88.2372 305.485 88.0244 305.425Z" fill="#1F1D0D"/>
<path d="M90.1162 306.937C87.1142 306.109 83.3446 306.268 80.829 308.245C80.7302 308.321 80.8442 308.457 80.943 308.435C84.0362 307.735 86.8938 307.363 90.0706 307.325C90.291 307.325 90.329 306.998 90.1162 306.937Z" fill="#1F1D0D"/>
<path d="M90.4594 297.595C89.403 295.84 87.1078 296.394 85.7398 297.36C83.5282 298.918 81.499 301.48 80.4502 303.958C80.4274 304.018 80.4654 304.056 80.511 304.072C80.5034 304.307 80.6858 304.566 80.9594 304.49C83.5586 303.768 86.4238 303.319 88.7266 301.822C90.0718 300.948 91.4626 299.252 90.4594 297.595ZM84.6758 302.589C83.4066 302.977 82.1298 303.296 80.8682 303.73C81.9018 302.445 82.8746 301.122 84.0374 299.944C84.5922 299.382 85.1698 298.812 85.8006 298.333C86.781 297.58 90.5202 296.128 89.6994 299.427C89.2586 301.252 86.1882 302.133 84.6758 302.589Z" fill="#1F1D0D"/>
<path d="M72.7668 302.506C75.1912 303.79 78.0868 303.98 80.7392 304.459C81.0128 304.512 81.18 304.231 81.1496 303.996C81.1952 303.98 81.2332 303.935 81.2028 303.874C79.9412 301.502 77.684 299.138 75.3432 297.785C73.8992 296.949 71.566 296.6 70.6616 298.447C69.8104 300.187 71.3532 301.753 72.7668 302.506ZM71.5736 300.21C70.4564 296.995 74.3172 298.105 75.3584 298.766C76.0272 299.192 76.658 299.701 77.2584 300.21C78.52 301.282 79.6144 302.506 80.762 303.692C79.47 303.372 78.1704 303.167 76.8708 302.901C75.3204 302.582 72.1892 301.989 71.5736 300.21Z" fill="#1F1D0D"/>
<path d="M83.9583 301.267L51.4531 299.891C51.4531 299.891 60.3223 228.547 60.4895 224.169C60.9151 212.798 68.4771 139.357 68.4771 139.357H108.18C108.18 139.357 105.679 156.307 101.393 167.055C101.393 167.055 98.1323 168.066 93.0859 170.848C93.0859 170.848 89.3695 219.419 89.2251 225.477C88.9515 237.448 83.9583 301.267 83.9583 301.267Z" fill="#29281E"/>
<path d="M83.0922 295.308C78.023 294.988 79.4822 295.011 74.413 294.745C71.9278 294.616 55.6258 293.78 53.285 294.069C53.2318 294.076 53.2318 294.16 53.2774 294.175C55.5802 294.654 71.8974 295.209 74.3826 295.285C79.4594 295.452 78.0002 295.346 83.077 295.46C83.1834 295.46 83.191 295.315 83.0922 295.308Z" fill="#1F1D0D"/>
<path d="M71.389 143.704C69.9146 162.198 68.4022 180.699 66.7074 199.177C65.0126 217.716 63.0214 236.24 60.6046 254.703C59.2518 265.017 57.7546 279.543 56.1586 289.827C56.151 289.896 56.2498 289.926 56.265 289.858C59.5406 271.592 61.9498 248.933 64.0018 230.501C66.0538 212.068 67.7258 193.583 69.2154 175.097C70.059 164.638 70.819 154.171 71.6246 143.712C71.6322 143.552 71.4042 143.56 71.389 143.704Z" fill="#1F1D0D"/>
<path d="M102.805 166.317C99.4381 167.473 96.1853 169.122 93.0845 170.848C92.9629 170.916 93.0465 171.106 93.1757 171.045C96.4513 169.639 99.7877 168.294 102.987 166.705C103.231 166.584 103.063 166.226 102.805 166.317Z" fill="#1F1D0D"/>
<path d="M103.847 143.841C103.839 143.727 103.642 143.704 103.642 143.826C103.672 147.718 103.421 151.138 103.094 154.771C102.942 156.459 101.582 165.785 98.6561 165.101C98.1697 164.987 97.9189 164.508 97.8429 163.764C97.7517 162.874 98.0861 161.787 98.2305 160.906C98.5573 158.952 98.8157 156.999 98.9829 155.022C99.2945 151.343 99.3097 147.657 98.8613 143.993C98.8461 143.872 98.6713 143.879 98.6713 144.001C98.6789 149.093 98.5421 154.179 97.7821 159.226C97.4173 161.65 96.1937 165.299 98.7321 165.679C101.316 166.059 102.988 159.94 103.3 158.268C104.181 153.601 104.219 148.561 103.847 143.841Z" fill="#1F1D0D"/>
<path d="M98.7313 165.352C98.4653 165.975 98.2525 166.629 98.0701 167.283C97.9333 167.792 97.7357 168.339 97.7965 168.871C97.8041 168.978 97.9409 168.985 98.0017 168.917C98.3437 168.484 98.4881 167.883 98.6781 167.374C98.8985 166.774 99.1341 166.181 99.3393 165.58C99.4837 165.177 98.8985 164.964 98.7313 165.352Z" fill="#1F1D0D"/>
<path d="M85.4945 146.889C85.4641 146.486 85.4945 146.061 85.3729 145.681C85.3501 145.62 85.2741 145.627 85.2513 145.681C85.1373 146.015 85.1525 146.38 85.1145 146.73C85.0765 147.132 85.0233 147.528 84.9777 147.931C84.8865 148.751 84.7497 149.565 84.5521 150.37C84.1721 151.891 83.4197 153.266 82.3177 154.384C81.2385 155.471 79.9465 156.277 78.5405 156.869C76.9673 157.538 75.3181 157.782 73.6917 158.26C73.6233 158.283 73.6461 158.374 73.7145 158.382C75.4625 158.435 77.3397 157.972 78.9661 157.348C80.4177 156.786 81.8085 155.942 82.9105 154.832C84.0505 153.677 84.8181 152.278 85.2057 150.705C85.4033 149.907 85.4869 149.086 85.5173 148.265C85.5325 147.801 85.5325 147.345 85.4945 146.889Z" fill="#1F1D0D"/>
<path d="M124.353 72.566C126.807 75.5152 129.46 83.5115 129.361 85.6854C129.262 87.8593 115.818 92.8304 113.925 91.6446C112.033 90.4589 104.547 79.8858 104.471 75.9713C104.395 72.0643 121.814 69.5104 124.353 72.566Z" fill="#AD6359"/>
<path d="M104.151 67.1388C102.92 65.8543 98.9372 62.0081 97.1664 63.7412C96.0568 64.8281 98.732 67.7849 99.8568 68.9479C102.175 71.3498 103.968 75.5988 104.804 77.6739C105.633 79.749 109.554 75.6596 109.554 75.6596C109.554 75.6596 107.335 70.4757 104.151 67.1388Z" fill="#AD6359"/>
<path d="M107.389 79.9999C107.389 79.9999 108.757 83.694 111.006 83.618C113.172 83.5344 112.678 80.3571 112.64 80.1291C112.716 80.3267 114.061 83.6864 116.311 83.3747C118.644 83.0479 117.603 79.9391 117.535 79.7414C117.664 79.9011 119.389 82.0141 121.046 81.3909C123.888 80.3115 119.617 74.7855 120.035 72.3608C120.035 72.3608 124.223 72.5964 124.344 72.5812C124.344 72.5812 120.392 67.2377 117.094 66.8576C115.353 66.66 114.821 68.241 114.821 68.241C114.821 68.241 113.735 66.3788 111.956 66.5688C111.044 66.6676 110.391 68.2182 110.391 68.2182C110.391 68.2182 109.463 66.7588 107.89 67.0325C106.636 67.2453 106.013 68.8111 105.945 69.4116C105.405 74.0558 107.389 79.9999 107.389 79.9999Z" fill="#AD6359"/>
<path d="M106.081 68.9783C106.081 68.9403 106.028 68.9327 106.028 68.9707C105.382 72.604 105.785 76.7922 107.396 80.1366C107.449 80.243 107.647 80.205 107.617 80.0758C106.606 76.3133 106.013 72.8928 106.081 68.9783Z" fill="#263238"/>
<path d="M110.375 68.1574C110.375 68.1118 110.306 68.1118 110.299 68.1574C109.653 71.9047 110.238 76.6097 112.548 80.2431C112.624 80.3647 112.822 80.4027 112.746 80.2507C111.385 77.7195 110.299 71.6767 110.375 68.1574Z" fill="#263238"/>
<path d="M117.785 79.9315C115.695 76.359 114.965 72.4824 114.783 68.3854C114.783 68.3322 114.707 68.3398 114.692 68.3854C114.236 70.4149 114.623 73.0069 115.095 75.006C115.543 76.9138 116.341 78.5481 117.656 79.9999C117.717 80.0607 117.831 80.0075 117.785 79.9315Z" fill="#263238"/>
<path d="M107.389 79.9998C107.723 80.6839 108.103 81.3452 108.551 81.9533C109 82.5462 109.539 83.1162 110.193 83.3823C110.512 83.5115 110.862 83.5267 111.173 83.4127C111.493 83.2911 111.797 83.1011 112.002 82.8426C112.435 82.3333 112.526 81.558 112.412 80.9043L112.139 79.2625L112.967 80.7067C113.332 81.3376 113.803 81.9533 114.35 82.4322C114.897 82.911 115.559 83.2379 116.212 83.1467C116.889 83.063 117.405 82.6298 117.504 81.9609C117.626 81.3072 117.474 80.5319 117.231 79.863L116.562 78.0083L117.801 79.5361C118.135 79.9466 118.545 80.3495 118.979 80.6687C119.412 80.9804 119.906 81.2236 120.392 81.2388C120.863 81.254 121.35 81.0032 121.547 80.5927C121.76 80.167 121.737 79.5894 121.661 79.0421C121.494 77.9323 121.091 76.8454 120.742 75.7432C120.559 75.1959 120.385 74.6411 120.233 74.0786C120.088 73.5237 119.936 72.9308 120.035 72.3531C119.989 72.9308 120.21 73.4857 120.385 74.0254C120.582 74.5651 120.795 75.0971 121.015 75.6368C121.456 76.7086 121.889 77.7879 122.133 78.9585C122.231 79.5437 122.323 80.1746 122.049 80.8207C121.768 81.482 121.053 81.8469 120.385 81.8393C119.701 81.8317 119.115 81.5276 118.614 81.178C118.112 80.8207 117.679 80.4179 117.276 79.939L117.839 79.6122C118.127 80.3951 118.317 81.2008 118.181 82.0825C118.112 82.5158 117.892 82.9718 117.527 83.2835C117.162 83.5951 116.729 83.7547 116.281 83.8079C115.353 83.9144 114.525 83.4431 113.925 82.9034C113.309 82.3485 112.838 81.7024 112.435 80.9803L112.99 80.7827C113.104 81.6188 112.937 82.5006 112.351 83.1467C112.063 83.4659 111.69 83.6711 111.287 83.8003C110.877 83.9296 110.413 83.8764 110.041 83.7091C109.281 83.3519 108.795 82.6982 108.377 82.0597C107.974 81.4136 107.647 80.7143 107.389 79.9998Z" fill="#263238"/>
<path d="M112.327 90.0712C112.327 90.0712 97.8417 82.6602 103.511 78.4188C105.198 77.157 113.619 73.9873 114.288 75.6672C115.154 77.8335 111.879 79.8174 109.629 80.7295C109.629 80.7295 114.911 82.5537 114.736 86.6127C114.63 89.1591 112.327 90.0712 112.327 90.0712Z" fill="#AD6359"/>
<path d="M103.062 78.7988C103.64 78.1983 104.37 77.7727 105.092 77.3698C105.821 76.967 106.581 76.6401 107.356 76.3361C108.914 75.7584 110.472 75.2263 112.144 74.9147C112.562 74.8463 112.996 74.7855 113.467 74.8387C113.703 74.8615 113.961 74.9299 114.189 75.0667C114.303 75.1351 114.394 75.2035 114.508 75.3328C114.599 75.4468 114.675 75.5684 114.721 75.69C114.926 76.1765 114.873 76.6933 114.729 77.1418C114.569 77.5827 114.318 77.9703 114.037 78.3124C113.459 78.9889 112.752 79.4905 112.023 79.9086C111.293 80.3419 110.526 80.6763 109.751 80.9955L109.728 80.4559C110.343 80.6915 110.891 80.9803 111.438 81.3072C111.977 81.6416 112.486 82.0217 112.943 82.4549C113.398 82.8958 113.794 83.3975 114.105 83.9448C114.417 84.492 114.622 85.1001 114.698 85.7158C114.531 85.1153 114.28 84.5528 113.931 84.0512C113.589 83.5495 113.155 83.1162 112.699 82.721C112.236 82.3333 111.734 81.9913 111.202 81.7024C110.678 81.4136 110.108 81.1628 109.553 80.9879L108.846 80.7675L109.53 80.4483C110.267 80.1062 111.004 79.7718 111.681 79.3385C112.357 78.9205 113.019 78.4492 113.505 77.8563C113.984 77.2862 114.318 76.5337 114.082 75.9408C113.915 75.4088 113.011 75.4316 112.251 75.5456C111.46 75.6596 110.663 75.8572 109.872 76.0625C109.082 76.2677 108.284 76.4805 107.509 76.7313C105.958 77.2786 104.385 77.8107 103.062 78.7988Z" fill="#263238"/>
<path d="M95.6466 100.561C108.46 116.371 127.088 126.617 131.686 123.288C136.276 119.959 120.787 102.476 120.521 102.225C119.617 101.359 112.762 97.7863 100.313 92.5492C88.0998 87.4032 89.9238 93.4993 95.6466 100.561Z" fill="#AD6359"/>
<path d="M114.745 98.6984L105.108 111.423C105.108 111.423 97.0069 103.061 92.7205 97.5278C88.4341 91.9943 88.8597 87.6921 98.4509 91.2646C108.034 94.8371 114.745 98.6984 114.745 98.6984Z" fill="#8607DD"/>
<path d="M104.19 108.511C105.376 106.778 106.599 105.076 107.868 103.411C108.492 102.59 109.107 101.754 109.746 100.948C110.407 100.112 111.129 99.3217 111.79 98.478C111.836 98.4172 111.934 98.4856 111.889 98.5464C111.281 99.3825 110.726 100.257 110.126 101.093C109.502 101.952 108.849 102.795 108.203 103.647C106.934 105.319 105.619 106.968 104.274 108.572C104.228 108.61 104.152 108.565 104.19 108.511Z" fill="#263238"/>
<path d="M109.729 105.326L105.109 111.423C105.109 111.423 97.0069 103.061 92.7205 97.5278C92.5761 97.3453 92.4469 97.1629 92.3101 96.9881C92.2569 96.9045 92.1961 96.8209 92.1353 96.7373C92.0441 96.608 91.9529 96.4788 91.8693 96.3496C91.6413 96.0152 91.4361 95.6883 91.2537 95.3691C91.1853 95.2551 91.1245 95.141 91.0637 95.027C90.7141 94.3809 90.4557 93.7652 90.2961 93.2104C90.2353 93.0051 90.1973 92.8075 90.1669 92.6175C90.1517 92.5187 90.1365 92.4275 90.1289 92.3362C94.3849 95.2398 104.265 101.632 109.729 105.326Z" fill="#263238"/>
<path d="M110.115 147.17C110.115 147.17 66.1336 147.923 65.8828 147.657C65.1988 146.935 74.0756 101.61 83.2716 92.268C86.5168 88.9691 93.2124 90.3145 94.322 90.8542C96.8984 92.1008 99.3304 94.7915 101.352 99.7778C105.41 109.75 110.67 146.456 110.115 147.17Z" fill="#A435F0"/>
<path opacity="0.1" d="M96.5346 92.344H83.1966C83.2194 92.3212 83.2422 92.2908 83.265 92.268C83.5766 91.9487 83.9262 91.6751 84.291 91.4395H95.349C95.7518 91.6979 96.147 91.9943 96.5346 92.344ZM98.0014 93.8642H81.9426C81.7298 94.1454 81.5246 94.4495 81.3194 94.7687H98.6854C98.465 94.4495 98.237 94.1454 98.0014 93.8642ZM99.6582 96.2889H80.3998C80.2326 96.5854 80.0654 96.8894 79.9058 97.2011H100.16C100 96.8894 99.833 96.5778 99.6582 96.2889ZM100.897 98.7213H79.1382C78.9938 99.0177 78.8494 99.3217 78.705 99.6258H101.285C101.163 99.3141 101.034 99.0101 100.897 98.7213ZM101.862 101.146H78.0362C77.907 101.442 77.7778 101.746 77.6486 102.051H102.159C102.06 101.731 101.961 101.435 101.862 101.146ZM102.622 103.571H77.033C76.919 103.875 76.7974 104.171 76.6758 104.483H102.873C102.789 104.171 102.706 103.867 102.622 103.571ZM103.276 105.995H76.1134C76.007 106.3 75.893 106.596 75.7866 106.908H103.504C103.428 106.596 103.352 106.292 103.276 105.995ZM103.869 108.428H75.2546C75.1482 108.724 75.0494 109.028 74.9506 109.332H104.074C104.005 109.028 103.937 108.724 103.869 108.428ZM104.416 110.853H74.4414C74.3426 111.149 74.2514 111.453 74.1526 111.757H104.613C104.545 111.453 104.484 111.149 104.416 110.853ZM104.933 113.277H73.6814C73.5826 113.574 73.4914 113.878 73.4002 114.189H105.123C105.062 113.885 105.001 113.581 104.933 113.277ZM105.427 115.702H72.9442C72.853 116.006 72.7618 116.31 72.6782 116.614H105.609C105.548 116.31 105.487 116.006 105.427 115.702ZM105.898 118.134H72.245C72.1538 118.438 72.0702 118.735 71.9866 119.039H106.065C106.012 118.735 105.959 118.431 105.898 118.134ZM106.346 120.559H71.5686C71.485 120.863 71.4014 121.167 71.3254 121.464H106.513C106.46 121.16 106.407 120.863 106.346 120.559ZM106.779 122.984H70.9226C70.839 123.288 70.763 123.592 70.687 123.896H106.939C106.893 123.592 106.84 123.288 106.779 122.984ZM107.213 125.416H70.2918C70.2234 125.72 70.1474 126.017 70.0714 126.321H107.357C107.311 126.024 107.258 125.72 107.213 125.416ZM107.608 127.841H69.6914C69.623 128.145 69.547 128.449 69.4786 128.745H107.76C107.714 128.449 107.661 128.145 107.608 127.841ZM108.003 130.266H69.1138C69.0454 130.577 68.977 130.881 68.901 131.178H108.147C108.102 130.874 108.056 130.577 108.003 130.266ZM108.391 132.69H68.559C68.4906 132.994 68.4222 133.306 68.3538 133.603H108.52C108.474 133.306 108.429 133.002 108.391 132.69ZM108.748 135.123H68.0194C67.9586 135.427 67.8902 135.731 67.8294 136.027H108.885C108.839 135.731 108.793 135.427 108.748 135.123ZM109.097 137.547H67.5026C67.4418 137.859 67.381 138.156 67.3202 138.452H109.227C109.181 138.156 109.143 137.852 109.097 137.547ZM109.432 139.972H67.0238C66.9554 140.284 66.8946 140.588 66.8414 140.884H109.553C109.515 140.588 109.47 140.284 109.432 139.972ZM109.736 142.397H66.5602C66.4994 142.716 66.4462 143.02 66.393 143.309H109.85C109.819 143.02 109.781 142.716 109.736 142.397ZM110.017 144.829H66.1422C66.089 145.156 66.051 145.46 66.0054 145.734H110.101C110.078 145.468 110.047 145.164 110.017 144.829ZM65.8458 147.254C65.8306 147.482 65.8458 147.619 65.8762 147.657C66.0814 147.862 93.3578 147.444 104.978 147.254H65.8458Z" fill="#030402"/>
<path d="M85.7738 97.7559C82.8098 101.822 67.6022 118.628 67.0474 120.187C66.485 121.752 70.0038 125.188 69.943 125.834C69.7074 128.457 64.0302 145.962 61.7578 144.183C58.771 141.842 46.0942 125.074 47.8878 117.815C49.6814 110.556 79.2834 93.1268 83.9726 91.6142C88.6694 90.1016 88.6998 93.7425 85.7738 97.7559Z" fill="#AD6359"/>
<path d="M73.8348 113.057L65.2012 100.933C65.2012 100.933 74.8684 94.6015 81.3056 91.8727C87.7504 89.1439 90.95 90.6793 85.0448 99.0329C79.1396 107.379 73.8348 113.057 73.8348 113.057Z" fill="#8607DD"/>
<path d="M67.7554 100.143C69.1234 101.731 70.4534 103.35 71.7454 105.007C72.3838 105.821 73.0298 106.626 73.6454 107.455C74.2838 108.314 74.869 109.211 75.5074 110.062C75.553 110.123 75.4695 110.199 75.4163 110.138C74.7703 109.332 74.0634 108.58 73.4098 107.782C72.7334 106.961 72.095 106.11 71.4338 105.273C70.1418 103.616 68.8879 101.929 67.6795 100.211C67.6491 100.158 67.7174 100.097 67.7554 100.143Z" fill="#263238"/>
<path d="M73.8198 113.118C75.1498 111.362 76.7002 109.796 78.129 108.124C79.5578 106.452 80.979 104.741 82.3394 103.016C82.3698 102.978 82.4382 103.016 82.4078 103.062C81.777 103.958 81.1614 104.878 80.5002 105.752C80.1734 106.186 79.8238 106.611 79.4818 107.037C79.649 106.9 79.8162 106.756 79.991 106.626C80.5078 106.231 81.055 105.866 81.6174 105.524C81.6478 105.509 81.6706 105.555 81.6478 105.57C81.1614 106.011 80.6674 106.444 80.1354 106.832C79.7554 107.113 79.3602 107.379 78.9726 107.645C78.7674 107.888 78.5698 108.131 78.3646 108.375C76.9738 110.062 75.583 111.772 73.911 113.179C73.8578 113.239 73.7742 113.179 73.8198 113.118Z" fill="#263238"/>
<path d="M69.1966 150.827C71.2258 149.451 68.4442 147.847 68.4442 147.847C68.4442 147.847 73.0042 149.192 74.5546 146.965C76.0366 144.814 72.609 142.99 72.3658 142.861C72.609 142.929 76.8346 144.062 78.157 141.66C79.5326 139.167 75.7706 137.928 75.5274 137.852C75.7782 137.844 79.069 137.707 79.6542 135.655C80.665 132.128 71.2182 131.725 69.1738 129.574C69.1738 129.574 70.0934 124.922 70.1618 124.793C70.1618 124.793 69.1206 126.61 67.4714 127.073C65.427 127.651 63.5878 127.985 62.7594 128.966C61.399 130.585 62.4554 132.158 62.4554 132.158C62.4554 132.158 59.8714 131.862 58.7694 133.717C58.207 134.667 59.233 136.423 59.233 136.423C59.233 136.423 57.1582 136.271 56.2766 137.981C55.5698 139.341 56.7098 140.884 56.7098 140.884C56.7098 140.884 54.6426 141.66 54.3766 143.286C53.837 146.555 64.8494 153.761 69.1966 150.827Z" fill="#AD6359"/>
<path d="M56.8613 141.143C56.8233 141.112 56.7853 141.158 56.8157 141.196C59.8557 144.449 64.1953 147.087 68.5957 147.946C68.7401 147.976 68.8465 147.748 68.6945 147.687C64.3245 145.939 60.5929 144.039 56.8613 141.143Z" fill="#263238"/>
<path d="M59.1698 136.4C59.1318 136.369 59.0786 136.438 59.1166 136.476C62.2706 139.813 67.2334 142.648 72.4242 143.043C72.599 143.058 72.7738 142.891 72.5686 142.861C69.1334 142.336 62.5138 139.022 59.1698 136.4Z" fill="#263238"/>
<path d="M75.8978 137.745C70.9426 137.183 66.6638 135.085 62.5826 132.295C62.5294 132.257 62.4838 132.341 62.5218 132.379C64.1482 134.287 66.9374 135.792 69.2022 136.78C71.3758 137.722 73.5266 138.14 75.8826 137.92C75.9662 137.912 76.0042 137.76 75.8978 137.745Z" fill="#263238"/>
<path d="M56.5813 140.862C55.8517 139.942 55.3501 138.786 55.8441 137.631C56.0721 137.107 56.4901 136.696 57.0069 136.445C57.6453 136.134 58.5193 136.248 58.9449 136.271C58.3065 135.199 58.0785 133.808 58.8917 132.766C59.2717 132.28 59.7885 132.082 60.3965 131.961C60.7233 131.892 62.0457 131.93 62.4181 132.044C61.8557 131.398 61.6353 130.479 61.8329 129.65C62.0609 128.685 62.7829 128.046 63.6569 127.651C64.6677 127.202 65.7849 127.111 66.8565 126.906C67.4189 126.8 67.9661 126.693 68.4905 126.458C68.9617 126.245 69.3797 125.933 69.8509 125.241C69.9117 125.15 69.9117 125.249 69.8585 125.325C69.5925 125.735 69.3873 125.994 69.0605 126.283C68.7261 126.572 68.3537 126.807 67.9585 127.005C66.9933 127.468 65.9293 127.583 64.9185 127.894C64.0369 128.168 63.1705 128.631 62.6309 129.407C62.0685 130.205 62.0913 131.239 62.5473 132.082C62.5777 132.12 62.5473 132.189 62.4789 132.181C62.0381 132.143 60.9589 132.295 60.6777 132.386C60.1989 132.546 59.7125 132.766 59.4161 133.169C58.7473 134.089 58.7777 135.396 59.2565 136.423C59.2717 136.461 58.1849 136.453 57.3641 136.909C56.9765 137.129 56.6725 137.509 56.4673 137.897C55.9961 138.832 56.1253 140.018 56.7637 140.839C56.7713 140.854 56.7713 140.862 56.7713 140.877C56.7713 140.884 56.7713 140.892 56.7713 140.9C56.7713 140.915 56.7637 140.922 56.7485 140.938C56.7409 140.945 56.0873 141.211 56.0569 141.211C56.0341 141.211 56.0417 141.188 56.0569 141.173C56.0645 141.15 56.4901 140.892 56.5813 140.862Z" fill="#263238"/>
<path d="M94.3097 97.5963C91.8929 98.4856 87.1657 95.1944 85.1061 92.3212C84.9693 92.1235 84.8325 83.5723 84.6349 81.8849C84.5893 81.5352 95.5637 83.1923 95.5637 83.1923C95.5637 83.1923 94.9405 86.8636 95.3129 89.8052C95.3433 90.0484 96.6429 96.745 94.3097 97.5963Z" fill="#AD6359"/>
<path d="M95.5561 83.1924C95.5561 83.1924 95.4345 83.9069 95.3281 84.9482C92.2653 88.6804 87.4165 89.0756 84.9389 88.992C84.8477 86.3392 84.7565 82.8883 84.6349 81.885C84.5893 81.543 95.5561 83.1924 95.5561 83.1924Z" fill="#263238"/>
<path d="M84.6791 63.6652C84.6791 63.6652 81.1831 65.0181 80.4687 68.5146C79.7467 72.0111 80.4611 75.7204 80.7651 75.9029C81.0615 76.1005 84.6791 63.6652 84.6791 63.6652Z" fill="#263238"/>
<path d="M98.7935 68.1802C99.6979 72.0339 96.9695 82.8198 94.1119 85.0697C89.9775 88.3382 83.5631 88.247 80.8727 83.3595C78.2659 78.624 82.0735 64.6305 85.2275 62.6238C89.8711 59.667 97.4635 62.4794 98.7935 68.1802Z" fill="#AD6359"/>
<path d="M87.9552 74.2382C87.9628 74.2078 88.0084 74.2839 88.0008 74.3143C87.8488 75.0592 87.7956 75.9333 88.434 76.2981C88.4568 76.3057 88.4416 76.3437 88.4188 76.3361C87.6132 76.0777 87.6892 74.9147 87.9552 74.2382Z" fill="#263238"/>
<path d="M88.7525 73.5693C89.9685 73.6834 89.6493 76.1157 88.5169 76.0017C87.4149 75.9029 87.7341 73.4705 88.7525 73.5693Z" fill="#263238"/>
<path d="M83.7122 73.4857C83.7122 73.4553 83.6514 73.5161 83.6438 73.5465C83.5754 74.299 83.3626 75.1579 82.6558 75.3176C82.633 75.3252 82.633 75.3632 82.6558 75.3632C83.507 75.348 83.7654 74.2078 83.7122 73.4857Z" fill="#263238"/>
<path d="M83.1425 72.6116C81.9417 72.3684 81.5465 74.7855 82.6561 75.0059C83.7429 75.234 84.1457 72.8168 83.1425 72.6116Z" fill="#263238"/>
<path d="M87.7873 80.5243C87.5897 80.6839 87.3921 80.912 87.1109 80.912C86.8449 80.912 86.5485 80.7676 86.3129 80.6535C86.2901 80.6459 86.2673 80.6687 86.2749 80.6916C86.4421 80.9956 86.8449 81.216 87.1945 81.1856C87.5441 81.1552 87.7341 80.874 87.8481 80.5699C87.8709 80.5243 87.8177 80.5015 87.7873 80.5243Z" fill="#263238"/>
<path d="M84.2681 77.0582C84.2681 77.0582 83.9489 78.1604 83.8729 78.6849C83.8653 78.7381 85.3929 78.8217 86.8597 79.5742C87.0801 79.6882 87.1105 79.4906 86.8673 79.2929C86.3885 78.9053 85.7653 78.4948 84.3897 78.2896C84.3745 78.1376 84.9065 76.6098 84.8305 76.587C84.5417 76.5186 83.9489 76.6326 83.5917 76.6858C84.1845 74.3751 85.1497 72.186 85.7045 69.8752C85.7197 69.7916 85.6057 69.7536 85.5753 69.822C84.4049 72.0491 83.6601 74.6867 82.9837 77.0582C82.8925 77.3547 84.0401 77.119 84.2681 77.0582Z" fill="#263238"/>
<path d="M89.6979 72.7408C89.4091 72.5584 89.1811 72.338 88.9151 72.1328C88.6187 71.8971 88.3603 71.7375 88.2387 71.3575C88.1779 71.1522 88.3223 70.8786 88.5123 70.8026C88.9607 70.6126 89.3939 70.8178 89.7587 71.0838C90.1615 71.3803 90.3895 71.7071 90.5187 72.186C90.6403 72.6496 90.0703 72.9841 89.6979 72.7408Z" fill="#263238"/>
<path d="M82.6126 69.936C82.947 69.8904 83.251 69.7916 83.5778 69.708C83.9502 69.6168 84.2542 69.5864 84.5202 69.29C84.6646 69.1303 84.6418 68.8187 84.505 68.6667C84.1782 68.3094 83.6994 68.3094 83.251 68.4006C82.7646 68.4994 82.415 68.6971 82.0958 69.0847C81.7918 69.4496 82.1718 69.9969 82.6126 69.936Z" fill="#263238"/>
<path d="M97.0056 77.3927C94.7712 77.1722 95.9872 67.3137 95.9872 67.3137C95.9872 67.3137 93.6008 68.165 91.7084 68.1118C89.816 68.0586 87.65 67.5797 87.346 67.4581C87.042 67.3365 91.0852 66.1963 91.0852 66.1963C91.0852 66.1963 81.1596 67.0628 80.8252 65.2006C80.7112 64.5469 82.5504 58.6637 90.7888 59.0361C96.8992 59.3098 99.7036 65.6642 99.7036 65.6642C99.7036 65.6642 102.66 68.9555 102.151 70.4529C101.284 73.0297 99.3768 77.6283 97.0056 77.3927Z" fill="#263238"/>
<path d="M95.6531 77.4383C95.6531 77.4383 98.4271 74.1318 99.9547 75.1503C101.482 76.1689 99.1795 81.1172 97.2415 81.6492C95.3035 82.1813 94.7715 80.3951 94.7715 80.3951L95.6531 77.4383Z" fill="#AD6359"/>
<path d="M99.2559 76.5489C99.2863 76.5489 99.2863 76.5945 99.2635 76.6021C97.8955 77.0202 97.0975 78.1831 96.5047 79.4069C96.9379 78.9508 97.4927 78.7304 98.1083 79.2549C98.1387 79.2853 98.1007 79.3309 98.0627 79.3233C97.5307 79.1637 97.1355 79.2169 96.7327 79.6197C96.4515 79.901 96.2387 80.2734 96.0183 80.6079C95.9499 80.7219 95.7371 80.6383 95.7979 80.509C95.8055 80.5014 95.8055 80.4862 95.8131 80.4786C95.9271 78.7912 97.4395 76.5565 99.2559 76.5489Z" fill="#263238"/>
<path d="M132.673 122.718C138.844 117.952 132.939 93.7578 129.359 84.8493C128.303 82.2269 111.545 87.1524 112.327 90.0712C116.804 106.71 125.916 127.94 132.673 122.718Z" fill="#AD6359"/>
<path d="M115.102 99.2001L116.948 103.776C117.579 105.296 118.195 106.809 118.871 108.306C119.502 109.819 120.216 111.293 120.916 112.776C121.622 114.258 122.39 115.71 123.15 117.169C122.185 115.831 121.318 114.425 120.528 112.973C119.738 111.521 119.023 110.032 118.347 108.527C117.708 107.006 117.078 105.479 116.538 103.92C115.998 102.377 115.497 100.804 115.102 99.2001Z" fill="#263238"/>
<path d="M113.96 51.1082C114.165 53.4949 112.394 55.6004 110.008 55.8057C107.621 56.0109 105.516 54.2398 105.311 51.8531C105.106 49.4664 106.877 47.3609 109.263 47.1556C111.649 46.9504 113.747 48.7215 113.96 51.1082Z" fill="white"/>
<path d="M113.961 51.1082C114.067 52.2408 113.718 53.4113 112.996 54.3083C112.289 55.2128 111.202 55.8513 110.024 55.9957C108.846 56.1477 107.592 55.8133 106.627 55.0532C105.662 54.2931 105.039 53.1225 104.925 51.8911C104.818 50.6598 105.236 49.3904 106.057 48.4783C106.87 47.5585 108.056 47.0189 109.241 46.9656C110.427 46.9048 111.605 47.3457 112.456 48.121C113.323 48.8887 113.87 49.9757 113.961 51.1082ZM113.961 51.1082C113.862 49.9757 113.285 48.8963 112.395 48.197C111.514 47.4977 110.359 47.2013 109.279 47.3457C108.193 47.4825 107.212 48.0678 106.566 48.8963C105.913 49.7248 105.593 50.789 105.692 51.8227C105.776 52.8565 106.27 53.8522 107.053 54.5515C107.828 55.2584 108.899 55.6689 109.994 55.6157C111.081 55.57 112.167 55.076 112.92 54.2399C113.672 53.4037 114.052 52.2484 113.961 51.1082Z" fill="#263238"/>
<path d="M104.56 59.1122C104.674 60.4424 103.694 61.613 102.364 61.727C101.034 61.841 99.8632 60.8605 99.7492 59.5303C99.6352 58.2001 100.616 57.0295 101.946 56.9155C103.276 56.8015 104.446 57.782 104.56 59.1122Z" fill="white"/>
<path d="M104.559 59.1122C104.696 60.374 103.761 61.7118 102.378 61.917C101.702 62.0234 100.964 61.8562 100.387 61.4229C99.8091 60.9897 99.4291 60.298 99.3683 59.5683C99.3075 58.8386 99.5583 58.0861 100.052 57.5616C100.546 57.0295 101.246 56.7407 101.93 56.7331C103.328 56.6799 104.476 57.8504 104.559 59.1122ZM104.559 59.1122C104.498 58.4813 104.172 57.8808 103.67 57.5084C103.168 57.1359 102.53 56.9991 101.96 57.0979C100.774 57.288 100.007 58.4357 100.121 59.4923C100.189 60.5488 101.139 61.5521 102.34 61.5369C102.925 61.5369 103.526 61.2937 103.959 60.8376C104.392 60.3892 104.612 59.7431 104.559 59.1122Z" fill="#263238"/>
<path d="M146.422 30.9198C147.266 37.8672 142.318 44.1837 135.372 45.035C133.092 45.3086 130.88 44.9666 128.912 44.1305C127.232 46.3196 124.709 47.8626 121.753 48.2198C117.869 48.6911 114.214 46.9961 111.994 44.0925C111.538 44.2293 111.06 44.3281 110.573 44.3889C105.846 44.959 101.544 41.5993 100.974 36.8638C100.708 34.6595 101.294 32.554 102.479 30.8742C101.081 29.1032 100.146 26.9521 99.8495 24.5577C99.0059 17.6028 103.954 11.2863 110.9 10.4426C114.062 10.0625 117.094 10.8758 119.541 12.5328C121.221 10.4349 123.683 8.96795 126.564 8.6183C131.534 8.01021 136.117 10.9442 137.796 15.4288C138.23 15.2768 138.686 15.178 139.157 15.1248C142.972 14.6611 146.438 17.3823 146.901 21.1905C147.16 23.2807 146.453 25.2722 145.138 26.7164C145.799 28.001 146.24 29.4148 146.422 30.9198Z" fill="white"/>
<path d="M146.422 30.9198C146.665 33.109 146.399 35.3817 145.518 37.4112C145.107 38.4449 144.499 39.3798 143.853 40.2691C143.146 41.1205 142.394 41.9414 141.49 42.5951C139.742 43.9633 137.598 44.7766 135.41 45.0882C133.213 45.3771 130.933 45.0882 128.874 44.2293L129.003 44.1989C128.007 45.5063 126.715 46.6008 125.233 47.3381C123.759 48.083 122.109 48.4783 120.445 48.4859C118.788 48.4935 117.124 48.121 115.634 47.3837C114.145 46.6464 112.815 45.5747 111.796 44.2521L112.078 44.3433C110.322 44.8602 108.407 44.8754 106.666 44.2673C104.911 43.7048 103.368 42.5419 102.281 41.0597C101.749 40.3072 101.323 39.4786 101.027 38.6045C100.753 37.7228 100.586 36.8031 100.579 35.8833C100.556 34.0363 101.134 32.1816 102.19 30.669L102.205 31.0947C100.29 28.6851 99.2487 25.5763 99.4159 22.4903C99.5451 19.4118 100.792 16.3866 102.912 14.1519C105.01 11.902 107.928 10.4578 110.976 10.1081C114.031 9.76609 117.177 10.5794 119.685 12.32L119.343 12.3733C120.552 10.891 122.148 9.73569 123.926 9.05919C125.712 8.3903 127.665 8.20027 129.535 8.51192C131.404 8.82356 133.19 9.62927 134.634 10.8454C136.101 12.0388 137.211 13.6426 137.872 15.3985L137.773 15.3529C139.24 14.874 140.866 14.8968 142.31 15.4137C143.762 15.9153 145.031 16.9187 145.86 18.2109C146.703 19.4955 147.083 21.0689 146.961 22.5891C146.84 24.1169 146.194 25.5915 145.153 26.7165V26.7013C145.822 28.0314 146.255 29.4604 146.422 30.9198ZM146.422 30.9198C146.247 29.4604 145.806 28.0314 145.13 26.7241L145.122 26.7165L145.13 26.7089C146.156 25.5839 146.787 24.1093 146.901 22.5967C147.015 21.0841 146.627 19.5259 145.784 18.2641C144.963 16.9871 143.701 16.0066 142.265 15.5201C140.836 15.0108 139.24 15.0184 137.819 15.5125L137.743 15.5353L137.712 15.4593C137.036 13.7338 135.919 12.1832 134.475 11.0355C133.046 9.86491 131.29 9.12 129.482 8.83876C127.665 8.57273 125.78 8.77795 124.078 9.44685C122.375 10.1233 120.863 11.2483 119.738 12.6849L119.594 12.8673L119.396 12.7381C116.957 11.0963 113.94 10.3818 111.036 10.7466C108.141 11.0963 105.382 12.4797 103.406 14.6232C101.415 16.7515 100.252 19.6171 100.153 22.5131C100.016 25.4167 100.951 28.3583 102.76 30.6386L102.927 30.8514L102.775 31.0719C101.787 32.4629 101.248 34.1579 101.263 35.8681C101.27 36.7195 101.415 37.5708 101.666 38.3841C101.939 39.1898 102.319 39.9651 102.813 40.6644C103.824 42.0402 105.238 43.1348 106.864 43.6896C108.475 44.2825 110.276 44.2901 111.933 43.834L112.108 43.7884L112.214 43.9253C113.172 45.1946 114.418 46.2436 115.84 46.9733C117.261 47.703 118.857 48.083 120.453 48.1059C122.056 48.1211 123.66 47.7638 125.111 47.0645C126.563 46.3728 127.84 45.3239 128.836 44.0545L128.889 43.9861L128.965 44.0165C130.971 44.8906 133.221 45.2174 135.402 44.959C137.576 44.6626 139.703 43.8645 141.451 42.5191C142.348 41.8806 143.101 41.0597 143.815 40.2235C144.469 39.3342 145.077 38.4069 145.487 37.3808C146.369 35.3741 146.65 33.1166 146.422 30.9198Z" fill="#263238"/>
<path d="M124.753 31.3151C124.753 30.3118 124.92 29.4072 125.247 28.6091C125.574 27.811 126.25 27.1117 127.276 26.5188C127.58 26.3364 127.96 26.1236 128.416 25.888C128.865 25.6523 129.305 25.3711 129.739 25.0442C130.172 24.7174 130.529 24.3297 130.825 23.8889C131.122 23.448 131.274 22.9387 131.274 22.3687C131.274 21.9354 131.19 21.563 131.031 21.2285C130.863 20.9017 130.65 20.628 130.384 20.4C130.118 20.172 129.807 20.0047 129.45 19.8907C129.093 19.7767 128.728 19.7235 128.363 19.7235C127.914 19.7235 127.504 19.7995 127.132 19.9515C126.767 20.1035 126.433 20.3012 126.136 20.5368C125.84 20.7724 125.574 21.0385 125.338 21.3349C125.102 21.6314 124.905 21.9126 124.738 22.1786L122.062 20.3392C122.329 19.7083 122.678 19.1382 123.119 18.6517C123.56 18.1577 124.061 17.7472 124.624 17.4052C125.186 17.0707 125.794 16.8123 126.448 16.6375C127.101 16.4626 127.778 16.379 128.477 16.379C129.252 16.379 130.02 16.493 130.78 16.7135C131.54 16.9415 132.216 17.2988 132.824 17.7852C133.425 18.2793 133.919 18.9102 134.299 19.6779C134.679 20.4456 134.869 21.3653 134.869 22.4295C134.869 23.0832 134.793 23.6608 134.641 24.1625C134.489 24.6642 134.268 25.1203 133.979 25.5307C133.69 25.9412 133.356 26.306 132.969 26.6329C132.581 26.9597 132.14 27.279 131.646 27.583C131.236 27.8262 130.825 28.0619 130.415 28.2899C130.005 28.5179 129.632 28.7688 129.29 29.0424C128.956 29.316 128.674 29.6353 128.462 29.9925C128.249 30.3498 128.142 30.783 128.142 31.2999H124.753V31.3151ZM124.814 38.4753V34.2339H128.226V38.4753H124.814Z" fill="#A435F0"/>
<path d="M117.146 23.3796C117.351 24.3602 117.374 25.2799 117.222 26.1236C117.063 26.9749 116.546 27.7959 115.664 28.5864C115.398 28.8296 115.071 29.1108 114.684 29.4377C114.289 29.7569 113.916 30.1294 113.567 30.5322C113.209 30.9427 112.936 31.3912 112.738 31.8852C112.541 32.3793 112.495 32.9038 112.617 33.4662C112.708 33.8843 112.86 34.2416 113.088 34.5304C113.316 34.8192 113.582 35.0397 113.886 35.2069C114.19 35.3741 114.532 35.4729 114.904 35.5109C115.277 35.5489 115.649 35.5261 116.006 35.4501C116.447 35.3589 116.835 35.1993 117.161 34.9713C117.488 34.7432 117.777 34.4848 118.02 34.1959C118.263 33.9071 118.469 33.5879 118.636 33.2534C118.803 32.9114 118.94 32.5997 119.046 32.3033L122.041 33.5575C121.911 34.234 121.683 34.8572 121.349 35.4273C121.022 35.9974 120.612 36.5067 120.133 36.9551C119.654 37.4036 119.107 37.776 118.499 38.0801C117.891 38.3841 117.253 38.6122 116.569 38.749C115.809 38.9086 115.033 38.9542 114.243 38.8934C113.453 38.825 112.715 38.6198 112.024 38.2625C111.332 37.9053 110.724 37.3884 110.192 36.7195C109.66 36.043 109.288 35.1841 109.067 34.1427C108.931 33.5042 108.893 32.919 108.938 32.3945C108.984 31.87 109.105 31.3836 109.303 30.9199C109.501 30.4562 109.751 30.0306 110.071 29.6277C110.382 29.2249 110.747 28.8296 111.165 28.4267C111.515 28.0999 111.864 27.7883 112.221 27.4842C112.579 27.1802 112.89 26.8609 113.164 26.5189C113.437 26.1768 113.643 25.812 113.779 25.4167C113.916 25.0215 113.931 24.573 113.825 24.0713L117.146 23.3796ZM115.619 16.3867L116.493 20.5368L113.156 21.2361L112.282 17.086L115.619 16.3867Z" fill="#A435F0"/>
</svg>
